%TF.GenerationSoftware,KiCad,Pcbnew,7.0.11-7.0.11~ubuntu22.04.1*%
%TF.CreationDate,2024-03-09T07:06:09+01:00*%
%TF.ProjectId,elcirc2024,656c6369-7263-4323-9032-342e6b696361,rev?*%
%TF.SameCoordinates,Original*%
%TF.FileFunction,Copper,L1,Top*%
%TF.FilePolarity,Positive*%
%FSLAX46Y46*%
G04 Gerber Fmt 4.6, Leading zero omitted, Abs format (unit mm)*
G04 Created by KiCad (PCBNEW 7.0.11-7.0.11~ubuntu22.04.1) date 2024-03-09 07:06:09*
%MOMM*%
%LPD*%
G01*
G04 APERTURE LIST*
G04 Aperture macros list*
%AMRoundRect*
0 Rectangle with rounded corners*
0 $1 Rounding radius*
0 $2 $3 $4 $5 $6 $7 $8 $9 X,Y pos of 4 corners*
0 Add a 4 corners polygon primitive as box body*
4,1,4,$2,$3,$4,$5,$6,$7,$8,$9,$2,$3,0*
0 Add four circle primitives for the rounded corners*
1,1,$1+$1,$2,$3*
1,1,$1+$1,$4,$5*
1,1,$1+$1,$6,$7*
1,1,$1+$1,$8,$9*
0 Add four rect primitives between the rounded corners*
20,1,$1+$1,$2,$3,$4,$5,0*
20,1,$1+$1,$4,$5,$6,$7,0*
20,1,$1+$1,$6,$7,$8,$9,0*
20,1,$1+$1,$8,$9,$2,$3,0*%
G04 Aperture macros list end*
%TA.AperFunction,ComponentPad*%
%ADD10R,1.800000X1.800000*%
%TD*%
%TA.AperFunction,ComponentPad*%
%ADD11C,1.800000*%
%TD*%
%TA.AperFunction,SMDPad,CuDef*%
%ADD12RoundRect,0.250000X0.450000X-0.350000X0.450000X0.350000X-0.450000X0.350000X-0.450000X-0.350000X0*%
%TD*%
%TA.AperFunction,ComponentPad*%
%ADD13C,1.500000*%
%TD*%
%TA.AperFunction,SMDPad,CuDef*%
%ADD14RoundRect,0.250000X-0.450000X0.350000X-0.450000X-0.350000X0.450000X-0.350000X0.450000X0.350000X0*%
%TD*%
%TA.AperFunction,SMDPad,CuDef*%
%ADD15RoundRect,0.250000X-0.337500X-0.475000X0.337500X-0.475000X0.337500X0.475000X-0.337500X0.475000X0*%
%TD*%
%TA.AperFunction,ComponentPad*%
%ADD16C,1.440000*%
%TD*%
%TA.AperFunction,ComponentPad*%
%ADD17R,1.700000X1.700000*%
%TD*%
%TA.AperFunction,ComponentPad*%
%ADD18O,1.700000X1.700000*%
%TD*%
%TA.AperFunction,SMDPad,CuDef*%
%ADD19RoundRect,0.150000X-0.825000X-0.150000X0.825000X-0.150000X0.825000X0.150000X-0.825000X0.150000X0*%
%TD*%
%TA.AperFunction,SMDPad,CuDef*%
%ADD20RoundRect,0.250000X0.350000X0.450000X-0.350000X0.450000X-0.350000X-0.450000X0.350000X-0.450000X0*%
%TD*%
%TA.AperFunction,SMDPad,CuDef*%
%ADD21RoundRect,0.250000X-0.550000X1.500000X-0.550000X-1.500000X0.550000X-1.500000X0.550000X1.500000X0*%
%TD*%
%TA.AperFunction,SMDPad,CuDef*%
%ADD22RoundRect,0.250000X-0.350000X-0.450000X0.350000X-0.450000X0.350000X0.450000X-0.350000X0.450000X0*%
%TD*%
%TA.AperFunction,SMDPad,CuDef*%
%ADD23RoundRect,0.250000X-0.475000X0.337500X-0.475000X-0.337500X0.475000X-0.337500X0.475000X0.337500X0*%
%TD*%
%TA.AperFunction,SMDPad,CuDef*%
%ADD24RoundRect,0.150000X-0.150000X0.825000X-0.150000X-0.825000X0.150000X-0.825000X0.150000X0.825000X0*%
%TD*%
%TA.AperFunction,ComponentPad*%
%ADD25R,2.400000X2.400000*%
%TD*%
%TA.AperFunction,ComponentPad*%
%ADD26C,2.400000*%
%TD*%
%TA.AperFunction,ViaPad*%
%ADD27C,1.800000*%
%TD*%
%TA.AperFunction,ViaPad*%
%ADD28C,0.800000*%
%TD*%
%TA.AperFunction,ViaPad*%
%ADD29C,1.100000*%
%TD*%
%TA.AperFunction,Conductor*%
%ADD30C,0.500000*%
%TD*%
%TA.AperFunction,Conductor*%
%ADD31C,1.500000*%
%TD*%
%TA.AperFunction,Conductor*%
%ADD32C,0.800000*%
%TD*%
G04 APERTURE END LIST*
D10*
%TO.P,LED1,1,K*%
%TO.N,Net-(LED1-K)*%
X100000000Y-100525000D03*
D11*
%TO.P,LED1,2,A*%
%TO.N,Net-(JP3-A)*%
X100000000Y-97985000D03*
%TD*%
D12*
%TO.P,R9,1*%
%TO.N,GNDREF*%
X105250000Y-102500000D03*
%TO.P,R9,2*%
%TO.N,Net-(LED1-K)*%
X105250000Y-100500000D03*
%TD*%
D13*
%TO.P,PHR1,1*%
%TO.N,Net-(JP1-A)*%
X92750000Y-98000000D03*
%TO.P,PHR1,2*%
%TO.N,GNDREF*%
X92750000Y-100500000D03*
%TD*%
D14*
%TO.P,R4,1*%
%TO.N,Net-(JP4-B)*%
X102250000Y-65000000D03*
%TO.P,R4,2*%
%TO.N,Net-(J2-Pin_1)*%
X102250000Y-67000000D03*
%TD*%
D12*
%TO.P,R5,1*%
%TO.N,Net-(JP1-A)*%
X95250000Y-94000000D03*
%TO.P,R5,2*%
%TO.N,+12V*%
X95250000Y-92000000D03*
%TD*%
D10*
%TO.P,J2,1,Pin_1*%
%TO.N,Net-(J2-Pin_1)*%
X105230000Y-58000000D03*
D11*
%TO.P,J2,2,Pin_2*%
%TO.N,GNDREF*%
X107770000Y-58000000D03*
%TD*%
D15*
%TO.P,C3,1*%
%TO.N,+12V*%
X101212500Y-80500000D03*
%TO.P,C3,2*%
%TO.N,GNDREF*%
X103287500Y-80500000D03*
%TD*%
D16*
%TO.P,TR3,1,1*%
%TO.N,Net-(U2D--)*%
X113657500Y-87010000D03*
%TO.P,TR3,2,2*%
%TO.N,Net-(C9-Pad1)*%
X111117500Y-87010000D03*
%TO.P,TR3,3,3*%
X108577500Y-87010000D03*
%TD*%
D15*
%TO.P,C7,1*%
%TO.N,Net-(U2D--)*%
X110962500Y-75750000D03*
%TO.P,C7,2*%
%TO.N,Net-(C7-Pad2)*%
X113037500Y-75750000D03*
%TD*%
D12*
%TO.P,R8,1*%
%TO.N,Net-(R8-Pad1)*%
X114500000Y-69750000D03*
%TO.P,R8,2*%
%TO.N,Net-(R7-Pad1)*%
X114500000Y-67750000D03*
%TD*%
D17*
%TO.P,JP3,1,A*%
%TO.N,Net-(JP3-A)*%
X100500000Y-60525000D03*
D18*
%TO.P,JP3,2,B*%
%TO.N,Net-(J2-Pin_1)*%
X100500000Y-57985000D03*
%TD*%
D19*
%TO.P,U1,1,-*%
%TO.N,Net-(JP2-C)*%
X96275000Y-82595000D03*
%TO.P,U1,2,Rg*%
%TO.N,unconnected-(U1-Rg-Pad2)*%
X96275000Y-83865000D03*
%TO.P,U1,3,Rg*%
%TO.N,unconnected-(U1-Rg-Pad3)*%
X96275000Y-85135000D03*
%TO.P,U1,4,+*%
%TO.N,Net-(JP1-C)*%
X96275000Y-86405000D03*
%TO.P,U1,5,Vs-*%
%TO.N,-12V*%
X101225000Y-86405000D03*
%TO.P,U1,6,Ref*%
%TO.N,GNDREF*%
X101225000Y-85135000D03*
%TO.P,U1,7*%
%TO.N,Net-(C9-Pad1)*%
X101225000Y-83865000D03*
%TO.P,U1,8,Vs+*%
%TO.N,+12V*%
X101225000Y-82595000D03*
%TD*%
D10*
%TO.P,J4,1,Pin_1*%
%TO.N,Net-(J4-Pin_1)*%
X78750000Y-87710000D03*
D11*
%TO.P,J4,2,Pin_2*%
%TO.N,GNDREF*%
X78750000Y-90250000D03*
%TD*%
D20*
%TO.P,R7,1*%
%TO.N,Net-(R7-Pad1)*%
X114500000Y-64250000D03*
%TO.P,R7,2*%
%TO.N,Net-(JP4-A)*%
X112500000Y-64250000D03*
%TD*%
D21*
%TO.P,C1,1*%
%TO.N,+12V*%
X89750000Y-57450000D03*
%TO.P,C1,2*%
%TO.N,GNDREF*%
X89750000Y-62850000D03*
%TD*%
D22*
%TO.P,R6,1*%
%TO.N,Net-(JP2-A)*%
X94500000Y-79500000D03*
%TO.P,R6,2*%
%TO.N,+12V*%
X96500000Y-79500000D03*
%TD*%
D12*
%TO.P,R3,1*%
%TO.N,Net-(C7-Pad2)*%
X102250000Y-71250000D03*
%TO.P,R3,2*%
%TO.N,Net-(JP4-B)*%
X102250000Y-69250000D03*
%TD*%
D17*
%TO.P,JP2,1,A*%
%TO.N,Net-(JP2-A)*%
X91025000Y-79500000D03*
D18*
%TO.P,JP2,2,C*%
%TO.N,Net-(JP2-C)*%
X88485000Y-79500000D03*
%TO.P,JP2,3,B*%
%TO.N,Net-(J3-Pin_1)*%
X85945000Y-79500000D03*
%TD*%
D23*
%TO.P,C8,1*%
%TO.N,Net-(JP4-B)*%
X99800000Y-64972500D03*
%TO.P,C8,2*%
%TO.N,Net-(J2-Pin_1)*%
X99800000Y-67047500D03*
%TD*%
D21*
%TO.P,C2,1*%
%TO.N,GNDREF*%
X89750000Y-67600000D03*
%TO.P,C2,2*%
%TO.N,-12V*%
X89750000Y-73000000D03*
%TD*%
D24*
%TO.P,U2,1*%
%TO.N,Net-(R7-Pad1)*%
X112272500Y-67775000D03*
%TO.P,U2,2,-*%
%TO.N,Net-(U2A--)*%
X111002500Y-67775000D03*
%TO.P,U2,3,+*%
%TO.N,GNDREF*%
X109732500Y-67775000D03*
%TO.P,U2,4,V+*%
%TO.N,+12V*%
X108462500Y-67775000D03*
%TO.P,U2,5,+*%
%TO.N,GNDREF*%
X107192500Y-67775000D03*
%TO.P,U2,6,-*%
%TO.N,Net-(JP4-B)*%
X105922500Y-67775000D03*
%TO.P,U2,7*%
%TO.N,Net-(J2-Pin_1)*%
X104652500Y-67775000D03*
%TO.P,U2,8*%
%TO.N,Net-(R1-Pad2)*%
X104652500Y-72725000D03*
%TO.P,U2,9,-*%
%TO.N,Net-(U2C--)*%
X105922500Y-72725000D03*
%TO.P,U2,10,+*%
%TO.N,GNDREF*%
X107192500Y-72725000D03*
%TO.P,U2,11,V-*%
%TO.N,-12V*%
X108462500Y-72725000D03*
%TO.P,U2,12,+*%
%TO.N,GNDREF*%
X109732500Y-72725000D03*
%TO.P,U2,13,-*%
%TO.N,Net-(U2D--)*%
X111002500Y-72725000D03*
%TO.P,U2,14*%
%TO.N,Net-(C7-Pad2)*%
X112272500Y-72725000D03*
%TD*%
D17*
%TO.P,JP1,1,A*%
%TO.N,Net-(JP1-A)*%
X91000000Y-89500000D03*
D18*
%TO.P,JP1,2,C*%
%TO.N,Net-(JP1-C)*%
X88460000Y-89500000D03*
%TO.P,JP1,3,B*%
%TO.N,Net-(J4-Pin_1)*%
X85920000Y-89500000D03*
%TD*%
D12*
%TO.P,R2,1*%
%TO.N,Net-(R1-Pad2)*%
X100000000Y-71250000D03*
%TO.P,R2,2*%
%TO.N,Net-(JP4-B)*%
X100000000Y-69250000D03*
%TD*%
D25*
%TO.P,J1,1,Pin_1*%
%TO.N,+12V*%
X80250000Y-66000000D03*
D26*
%TO.P,J1,2,Pin_2*%
%TO.N,GNDREF*%
X80250000Y-69500000D03*
%TO.P,J1,3,Pin_3*%
%TO.N,-12V*%
X80250000Y-73000000D03*
%TD*%
D10*
%TO.P,J3,1,Pin_1*%
%TO.N,Net-(J3-Pin_1)*%
X78750000Y-79460000D03*
D11*
%TO.P,J3,2,Pin_2*%
%TO.N,GNDREF*%
X78750000Y-82000000D03*
%TD*%
D16*
%TO.P,TR2,1,1*%
%TO.N,Net-(U2C--)*%
X113657500Y-80560000D03*
%TO.P,TR2,2,2*%
%TO.N,Net-(C9-Pad1)*%
X111117500Y-80560000D03*
%TO.P,TR2,3,3*%
X108577500Y-80560000D03*
%TD*%
%TO.P,TR4,1,1*%
%TO.N,GNDREF*%
X85950000Y-84500000D03*
%TO.P,TR4,2,2*%
X88490000Y-84500000D03*
%TO.P,TR4,3,3*%
%TO.N,Net-(JP2-A)*%
X91030000Y-84500000D03*
%TD*%
D20*
%TO.P,R1,1*%
%TO.N,Net-(U2C--)*%
X105962500Y-75750000D03*
%TO.P,R1,2*%
%TO.N,Net-(R1-Pad2)*%
X103962500Y-75750000D03*
%TD*%
D23*
%TO.P,C9,1*%
%TO.N,Net-(C9-Pad1)*%
X103750000Y-91712500D03*
%TO.P,C9,2*%
%TO.N,Net-(U2A--)*%
X103750000Y-93787500D03*
%TD*%
D16*
%TO.P,TR1,1,1*%
%TO.N,Net-(R8-Pad1)*%
X113550000Y-93750000D03*
%TO.P,TR1,2,2*%
%TO.N,Net-(U2A--)*%
X111010000Y-93750000D03*
%TO.P,TR1,3,3*%
X108470000Y-93750000D03*
%TD*%
D17*
%TO.P,JP4,1,A*%
%TO.N,Net-(JP4-A)*%
X108525000Y-64250000D03*
D18*
%TO.P,JP4,2,B*%
%TO.N,Net-(JP4-B)*%
X105985000Y-64250000D03*
%TD*%
D15*
%TO.P,C4,1*%
%TO.N,-12V*%
X101212500Y-88500000D03*
%TO.P,C4,2*%
%TO.N,GNDREF*%
X103287500Y-88500000D03*
%TD*%
D27*
%TO.N,+12V*%
X95250000Y-69250000D03*
X95250000Y-57500000D03*
D28*
X108500000Y-69250000D03*
X100000000Y-80500000D03*
X96500000Y-80500000D03*
X95250000Y-91000000D03*
%TO.N,GNDREF*%
X103250000Y-87250000D03*
X107192500Y-66307500D03*
D29*
X107000000Y-102500000D03*
D28*
X102750000Y-85135000D03*
X109750000Y-74250000D03*
X103250000Y-81750000D03*
X107250000Y-74250000D03*
X109732500Y-66267500D03*
D27*
X89750000Y-65250000D03*
%TO.N,-12V*%
X98500000Y-73000000D03*
D28*
X108462500Y-71537500D03*
X101250000Y-90000000D03*
%TO.N,Net-(U2D--)*%
X111000000Y-77250000D03*
%TO.N,Net-(U2A--)*%
X111000000Y-69250000D03*
%TD*%
D30*
%TO.N,+12V*%
X101212500Y-80500000D02*
X100000000Y-80500000D01*
D31*
X80250000Y-66000000D02*
X83500000Y-66000000D01*
X95250000Y-57500000D02*
X89800000Y-57500000D01*
D30*
X108462500Y-69212500D02*
X108500000Y-69250000D01*
D31*
X89800000Y-57500000D02*
X89750000Y-57450000D01*
X86550000Y-57450000D02*
X89750000Y-57450000D01*
X83500000Y-66000000D02*
X85000000Y-64500000D01*
D30*
X108462500Y-67775000D02*
X108462500Y-69212500D01*
D31*
X85000000Y-64500000D02*
X85000000Y-59000000D01*
X85000000Y-59000000D02*
X86550000Y-57450000D01*
D30*
X96500000Y-79500000D02*
X96500000Y-80500000D01*
X101225000Y-82595000D02*
X101225000Y-80512500D01*
X101225000Y-80512500D02*
X101212500Y-80500000D01*
X95250000Y-92000000D02*
X95250000Y-91000000D01*
D31*
%TO.N,GNDREF*%
X89750000Y-62850000D02*
X89750000Y-67600000D01*
D30*
X107250000Y-66250000D02*
X107192500Y-66307500D01*
X107192500Y-74192500D02*
X107250000Y-74250000D01*
X107192500Y-72725000D02*
X107192500Y-74192500D01*
D32*
X105250000Y-102500000D02*
X107000000Y-102500000D01*
D30*
X109750000Y-66250000D02*
X109732500Y-66267500D01*
X103250000Y-81750000D02*
X103287500Y-81462500D01*
X103287500Y-88500000D02*
X103250000Y-87250000D01*
X107192500Y-67775000D02*
X107192500Y-66307500D01*
X102750000Y-85135000D02*
X101225000Y-85135000D01*
X109732500Y-67775000D02*
X109732500Y-66267500D01*
X103287500Y-81462500D02*
X103287500Y-80500000D01*
X109732500Y-72725000D02*
X109732500Y-74232500D01*
X109732500Y-74232500D02*
X109750000Y-74250000D01*
%TO.N,-12V*%
X101225000Y-86405000D02*
X101225000Y-88487500D01*
X101225000Y-88487500D02*
X101212500Y-88500000D01*
X108500000Y-71500000D02*
X108462500Y-71537500D01*
D31*
X80250000Y-73000000D02*
X89750000Y-73000000D01*
D30*
X108462500Y-72725000D02*
X108462500Y-71537500D01*
X101212500Y-88500000D02*
X101250000Y-90000000D01*
D31*
X98500000Y-73000000D02*
X89750000Y-73000000D01*
D30*
%TO.N,Net-(U2D--)*%
X111000000Y-77250000D02*
X111000000Y-75787500D01*
X111002500Y-72725000D02*
X111002500Y-75710000D01*
X111000000Y-75787500D02*
X110962500Y-75750000D01*
X111002500Y-75710000D02*
X110962500Y-75750000D01*
%TO.N,Net-(C7-Pad2)*%
X104000000Y-70500000D02*
X103250000Y-71250000D01*
X113037500Y-74537500D02*
X113037500Y-75750000D01*
X112272500Y-71272500D02*
X111500000Y-70500000D01*
X112250000Y-72747500D02*
X112272500Y-72725000D01*
X111500000Y-70500000D02*
X104000000Y-70500000D01*
X112272500Y-72725000D02*
X112272500Y-71272500D01*
X103250000Y-71250000D02*
X102250000Y-71250000D01*
X112272500Y-72725000D02*
X112272500Y-73772500D01*
X112272500Y-73772500D02*
X113037500Y-74537500D01*
%TO.N,Net-(JP4-B)*%
X105922500Y-69077500D02*
X105922500Y-67775000D01*
X103500000Y-69250000D02*
X103750000Y-69500000D01*
X99800000Y-64972500D02*
X102222500Y-64972500D01*
X102222500Y-64972500D02*
X102250000Y-65000000D01*
X100000000Y-69250000D02*
X102250000Y-69250000D01*
X103500000Y-65000000D02*
X104250000Y-64250000D01*
X105500000Y-69500000D02*
X105922500Y-69077500D01*
X105922500Y-67775000D02*
X105922500Y-64312500D01*
X105922500Y-64312500D02*
X105985000Y-64250000D01*
X104250000Y-64250000D02*
X105985000Y-64250000D01*
X102250000Y-65000000D02*
X103500000Y-65000000D01*
X103750000Y-69500000D02*
X105500000Y-69500000D01*
X102250000Y-69250000D02*
X103500000Y-69250000D01*
%TO.N,Net-(J2-Pin_1)*%
X103250000Y-67000000D02*
X102250000Y-67000000D01*
X99800000Y-67047500D02*
X102202500Y-67047500D01*
X104652500Y-67775000D02*
X104025000Y-67775000D01*
X105230000Y-58000000D02*
X98750000Y-58000000D01*
X104025000Y-67775000D02*
X103250000Y-67000000D01*
X97500000Y-66000000D02*
X98547500Y-67047500D01*
X98547500Y-67047500D02*
X99800000Y-67047500D01*
X102202500Y-67047500D02*
X102250000Y-67000000D01*
X98750000Y-58000000D02*
X97500000Y-59250000D01*
X97500000Y-59250000D02*
X97500000Y-66000000D01*
%TO.N,Net-(C9-Pad1)*%
X101225000Y-83865000D02*
X108462500Y-83865000D01*
X108577500Y-90422500D02*
X108577500Y-87010000D01*
X108462500Y-83865000D02*
X108577500Y-83750000D01*
X108577500Y-83750000D02*
X108577500Y-80560000D01*
X108577500Y-80560000D02*
X111117500Y-80560000D01*
X107287500Y-91712500D02*
X108577500Y-90422500D01*
X108577500Y-87010000D02*
X108577500Y-83750000D01*
X111117500Y-87010000D02*
X108577500Y-87010000D01*
X103750000Y-91712500D02*
X107287500Y-91712500D01*
%TO.N,Net-(U2C--)*%
X105962500Y-72765000D02*
X105922500Y-72725000D01*
X105962500Y-77462500D02*
X105962500Y-75750000D01*
X107000000Y-78500000D02*
X105962500Y-77462500D01*
X105962500Y-75750000D02*
X105962500Y-72765000D01*
X113657500Y-80560000D02*
X113657500Y-79657500D01*
X113657500Y-79657500D02*
X112500000Y-78500000D01*
X112500000Y-78500000D02*
X107000000Y-78500000D01*
%TO.N,Net-(J3-Pin_1)*%
X78750000Y-79460000D02*
X85905000Y-79460000D01*
X85905000Y-79460000D02*
X85945000Y-79500000D01*
%TO.N,Net-(J4-Pin_1)*%
X81710000Y-87710000D02*
X78750000Y-87710000D01*
X83500000Y-89500000D02*
X81710000Y-87710000D01*
X85920000Y-89500000D02*
X83500000Y-89500000D01*
%TO.N,Net-(JP1-A)*%
X92750000Y-98000000D02*
X94000000Y-98000000D01*
X95250000Y-96750000D02*
X95250000Y-94000000D01*
X94000000Y-98000000D02*
X95250000Y-96750000D01*
X91000000Y-89500000D02*
X91000000Y-92500000D01*
X91000000Y-92500000D02*
X92500000Y-94000000D01*
X92500000Y-94000000D02*
X95250000Y-94000000D01*
%TO.N,Net-(JP1-C)*%
X89345000Y-86405000D02*
X88460000Y-87290000D01*
X88460000Y-87290000D02*
X88460000Y-89500000D01*
X96275000Y-86405000D02*
X89345000Y-86405000D01*
%TO.N,Net-(JP2-A)*%
X91030000Y-79505000D02*
X91025000Y-79500000D01*
X94500000Y-79500000D02*
X91025000Y-79500000D01*
%TO.N,Net-(JP2-C)*%
X96275000Y-82595000D02*
X89595000Y-82595000D01*
X88485000Y-79500000D02*
X88485000Y-81485000D01*
X89595000Y-82595000D02*
X88485000Y-81485000D01*
%TO.N,Net-(JP4-A)*%
X112500000Y-64250000D02*
X108525000Y-64250000D01*
%TO.N,Net-(U2A--)*%
X111002500Y-69247500D02*
X111000000Y-69250000D01*
X108470000Y-93750000D02*
X103787500Y-93750000D01*
X103787500Y-93750000D02*
X103750000Y-93787500D01*
X111010000Y-93750000D02*
X108470000Y-93750000D01*
X111002500Y-67775000D02*
X111002500Y-69247500D01*
%TO.N,Net-(R1-Pad2)*%
X103962500Y-74787500D02*
X103962500Y-75750000D01*
X100000000Y-72250000D02*
X100000000Y-71250000D01*
X104652500Y-72725000D02*
X104652500Y-74097500D01*
X100475000Y-72725000D02*
X100000000Y-72250000D01*
X104652500Y-74097500D02*
X103962500Y-74787500D01*
X104652500Y-72725000D02*
X100475000Y-72725000D01*
%TO.N,Net-(R7-Pad1)*%
X112272500Y-67775000D02*
X114475000Y-67775000D01*
X114500000Y-64250000D02*
X114500000Y-67750000D01*
X114475000Y-67775000D02*
X114500000Y-67750000D01*
%TO.N,Net-(R8-Pad1)*%
X114500000Y-72250000D02*
X114500000Y-69750000D01*
X115250000Y-73000000D02*
X114500000Y-72250000D01*
X113550000Y-93750000D02*
X113550000Y-91200000D01*
X113550000Y-91200000D02*
X115250000Y-89500000D01*
X115250000Y-89500000D02*
X115250000Y-73000000D01*
D32*
%TO.N,Net-(LED1-K)*%
X105225000Y-100525000D02*
X105250000Y-100500000D01*
X100000000Y-100525000D02*
X105225000Y-100525000D01*
%TD*%
M02*
