%TF.GenerationSoftware,KiCad,Pcbnew,7.0.11-7.0.11~ubuntu22.04.1*%
%TF.CreationDate,2024-03-09T07:06:09+01:00*%
%TF.ProjectId,elcirc2024,656c6369-7263-4323-9032-342e6b696361,rev?*%
%TF.SameCoordinates,Original*%
%TF.FileFunction,Copper,L2,Inr*%
%TF.FilePolarity,Positive*%
%FSLAX46Y46*%
G04 Gerber Fmt 4.6, Leading zero omitted, Abs format (unit mm)*
G04 Created by KiCad (PCBNEW 7.0.11-7.0.11~ubuntu22.04.1) date 2024-03-09 07:06:09*
%MOMM*%
%LPD*%
G01*
G04 APERTURE LIST*
%TA.AperFunction,ComponentPad*%
%ADD10R,1.800000X1.800000*%
%TD*%
%TA.AperFunction,ComponentPad*%
%ADD11C,1.800000*%
%TD*%
%TA.AperFunction,ComponentPad*%
%ADD12C,1.500000*%
%TD*%
%TA.AperFunction,ComponentPad*%
%ADD13C,1.440000*%
%TD*%
%TA.AperFunction,ComponentPad*%
%ADD14R,1.700000X1.700000*%
%TD*%
%TA.AperFunction,ComponentPad*%
%ADD15O,1.700000X1.700000*%
%TD*%
%TA.AperFunction,ComponentPad*%
%ADD16R,2.400000X2.400000*%
%TD*%
%TA.AperFunction,ComponentPad*%
%ADD17C,2.400000*%
%TD*%
%TA.AperFunction,ViaPad*%
%ADD18C,1.800000*%
%TD*%
%TA.AperFunction,ViaPad*%
%ADD19C,0.800000*%
%TD*%
%TA.AperFunction,ViaPad*%
%ADD20C,1.100000*%
%TD*%
%TA.AperFunction,Conductor*%
%ADD21C,1.500000*%
%TD*%
G04 APERTURE END LIST*
D10*
%TO.N,Net-(LED1-K)*%
%TO.C,LED1*%
X100000000Y-100525000D03*
D11*
%TO.N,Net-(JP3-A)*%
X100000000Y-97985000D03*
%TD*%
D12*
%TO.N,Net-(JP1-A)*%
%TO.C,PHR1*%
X92750000Y-98000000D03*
%TO.N,GNDREF*%
X92750000Y-100500000D03*
%TD*%
D10*
%TO.N,Net-(J2-Pin_1)*%
%TO.C,J2*%
X105230000Y-58000000D03*
D11*
%TO.N,GNDREF*%
X107770000Y-58000000D03*
%TD*%
D13*
%TO.N,Net-(U2D--)*%
%TO.C,TR3*%
X113657500Y-87010000D03*
%TO.N,Net-(C9-Pad1)*%
X111117500Y-87010000D03*
X108577500Y-87010000D03*
%TD*%
D14*
%TO.N,Net-(JP3-A)*%
%TO.C,JP3*%
X100500000Y-60525000D03*
D15*
%TO.N,Net-(J2-Pin_1)*%
X100500000Y-57985000D03*
%TD*%
D10*
%TO.N,Net-(J4-Pin_1)*%
%TO.C,J4*%
X78750000Y-87710000D03*
D11*
%TO.N,GNDREF*%
X78750000Y-90250000D03*
%TD*%
D14*
%TO.N,Net-(JP2-A)*%
%TO.C,JP2*%
X91025000Y-79500000D03*
D15*
%TO.N,Net-(JP2-C)*%
X88485000Y-79500000D03*
%TO.N,Net-(J3-Pin_1)*%
X85945000Y-79500000D03*
%TD*%
D14*
%TO.N,Net-(JP1-A)*%
%TO.C,JP1*%
X91000000Y-89500000D03*
D15*
%TO.N,Net-(JP1-C)*%
X88460000Y-89500000D03*
%TO.N,Net-(J4-Pin_1)*%
X85920000Y-89500000D03*
%TD*%
D16*
%TO.N,+12V*%
%TO.C,J1*%
X80250000Y-66000000D03*
D17*
%TO.N,GNDREF*%
X80250000Y-69500000D03*
%TO.N,-12V*%
X80250000Y-73000000D03*
%TD*%
D10*
%TO.N,Net-(J3-Pin_1)*%
%TO.C,J3*%
X78750000Y-79460000D03*
D11*
%TO.N,GNDREF*%
X78750000Y-82000000D03*
%TD*%
D13*
%TO.N,Net-(U2C--)*%
%TO.C,TR2*%
X113657500Y-80560000D03*
%TO.N,Net-(C9-Pad1)*%
X111117500Y-80560000D03*
X108577500Y-80560000D03*
%TD*%
%TO.N,GNDREF*%
%TO.C,TR4*%
X85950000Y-84500000D03*
X88490000Y-84500000D03*
%TO.N,Net-(JP2-A)*%
X91030000Y-84500000D03*
%TD*%
%TO.N,Net-(R8-Pad1)*%
%TO.C,TR1*%
X113550000Y-93750000D03*
%TO.N,Net-(U2A--)*%
X111010000Y-93750000D03*
X108470000Y-93750000D03*
%TD*%
D14*
%TO.N,Net-(JP4-A)*%
%TO.C,JP4*%
X108525000Y-64250000D03*
D15*
%TO.N,Net-(JP4-B)*%
X105985000Y-64250000D03*
%TD*%
D18*
%TO.N,+12V*%
X95250000Y-69250000D03*
X95250000Y-57500000D03*
D19*
X108500000Y-69250000D03*
X100000000Y-80500000D03*
X96500000Y-80500000D03*
X95250000Y-91000000D03*
%TO.N,GNDREF*%
X103250000Y-87250000D03*
X107192500Y-66307500D03*
D20*
X107000000Y-102500000D03*
D19*
X102750000Y-85135000D03*
X109750000Y-74250000D03*
X103250000Y-81750000D03*
X107250000Y-74250000D03*
X109732500Y-66267500D03*
D18*
X89750000Y-65250000D03*
%TO.N,-12V*%
X98500000Y-73000000D03*
D19*
X108462500Y-71537500D03*
X101250000Y-90000000D03*
%TO.N,Net-(U2D--)*%
X111000000Y-77250000D03*
%TO.N,Net-(U2A--)*%
X111000000Y-69250000D03*
%TD*%
D21*
%TO.N,+12V*%
X100000000Y-80500000D02*
X95250000Y-80500000D01*
X95250000Y-80500000D02*
X95250000Y-91000000D01*
X95250000Y-80500000D02*
X95250000Y-57500000D01*
%TO.N,-12V*%
X105250000Y-75750000D02*
X105250000Y-88750000D01*
X105250000Y-88750000D02*
X104000000Y-90000000D01*
X102500000Y-73000000D02*
X105250000Y-75750000D01*
X104000000Y-90000000D02*
X101250000Y-90000000D01*
X98500000Y-73000000D02*
X102500000Y-73000000D01*
%TD*%
M02*
