M48
; DRILL file {KiCad 7.0.11-7.0.11~ubuntu22.04.1} date sab 9 mar 2024, 07:06:16
; FORMAT={-:-/ absolute / inch / decimal}
; #@! TF.CreationDate,2024-03-09T07:06:16+01:00
; #@! TF.GenerationSoftware,Kicad,Pcbnew,7.0.11-7.0.11~ubuntu22.04.1
; #@! TF.FileFunction,Plated,1,4,PTH
FMAT,2
INCH
; #@! TA.AperFunction,Plated,PTH,ViaDrill
T1C0.0157
; #@! TA.AperFunction,Plated,PTH,ViaDrill
T2C0.0236
; #@! TA.AperFunction,Plated,PTH,ComponentDrill
T3C0.0315
; #@! TA.AperFunction,Plated,PTH,ComponentDrill
T4C0.0354
; #@! TA.AperFunction,Plated,PTH,ComponentDrill
T5C0.0394
; #@! TA.AperFunction,Plated,PTH,ViaDrill
T6C0.0433
; #@! TA.AperFunction,Plated,PTH,ComponentDrill
T7C0.0472
%
G90
G05
T1
X3.75Y-3.5827
X3.7992Y-3.1693
X3.937Y-3.1693
X3.9862Y-3.5433
X4.0453Y-3.3518
X4.065Y-3.2185
X4.065Y-3.435
X4.2202Y-2.6105
X4.2224Y-2.9232
X4.2702Y-2.8164
X4.2717Y-2.7264
X4.3202Y-2.609
X4.3209Y-2.9232
X4.3701Y-2.7264
X4.3701Y-3.0413
T2
X4.2126Y-4.0354
T3
X3.3839Y-3.3268
X3.4839Y-3.3268
X3.5839Y-3.3268
X3.6516Y-3.8583
X3.6516Y-3.9567
X4.2705Y-3.6909
X4.2747Y-3.1717
X4.2747Y-3.4256
X4.3705Y-3.6909
X4.3747Y-3.1717
X4.3747Y-3.4256
X4.4705Y-3.6909
X4.4747Y-3.1717
X4.4747Y-3.4256
T4
X3.937Y-3.8577
X3.937Y-3.9577
T5
X3.3827Y-3.5236
X3.3837Y-3.1299
X3.4827Y-3.5236
X3.4837Y-3.1299
X3.5827Y-3.5236
X3.5837Y-3.1299
X3.9567Y-2.2829
X3.9567Y-2.3829
X4.1726Y-2.5295
X4.2726Y-2.5295
T6
X3.5335Y-2.5689
X3.75Y-2.2638
X3.75Y-2.7264
X3.878Y-2.874
T7
X3.1004Y-3.1283
X3.1004Y-3.2283
X3.1004Y-3.4531
X3.1004Y-3.5531
X3.1594Y-2.5984
X3.1594Y-2.7362
X3.1594Y-2.874
X4.1429Y-2.2835
X4.2429Y-2.2835
M30
