%TF.GenerationSoftware,KiCad,Pcbnew,7.0.11-7.0.11~ubuntu22.04.1*%
%TF.CreationDate,2024-03-09T07:06:09+01:00*%
%TF.ProjectId,elcirc2024,656c6369-7263-4323-9032-342e6b696361,rev?*%
%TF.SameCoordinates,Original*%
%TF.FileFunction,Soldermask,Bot*%
%TF.FilePolarity,Negative*%
%FSLAX46Y46*%
G04 Gerber Fmt 4.6, Leading zero omitted, Abs format (unit mm)*
G04 Created by KiCad (PCBNEW 7.0.11-7.0.11~ubuntu22.04.1) date 2024-03-09 07:06:09*
%MOMM*%
%LPD*%
G01*
G04 APERTURE LIST*
G04 Aperture macros list*
%AMRoundRect*
0 Rectangle with rounded corners*
0 $1 Rounding radius*
0 $2 $3 $4 $5 $6 $7 $8 $9 X,Y pos of 4 corners*
0 Add a 4 corners polygon primitive as box body*
4,1,4,$2,$3,$4,$5,$6,$7,$8,$9,$2,$3,0*
0 Add four circle primitives for the rounded corners*
1,1,$1+$1,$2,$3*
1,1,$1+$1,$4,$5*
1,1,$1+$1,$6,$7*
1,1,$1+$1,$8,$9*
0 Add four rect primitives between the rounded corners*
20,1,$1+$1,$2,$3,$4,$5,0*
20,1,$1+$1,$4,$5,$6,$7,0*
20,1,$1+$1,$6,$7,$8,$9,0*
20,1,$1+$1,$8,$9,$2,$3,0*%
G04 Aperture macros list end*
%ADD10R,1.800000X1.800000*%
%ADD11C,1.800000*%
%ADD12C,1.704000*%
%ADD13C,3.200000*%
%ADD14RoundRect,0.102000X-0.900000X-0.900000X0.900000X-0.900000X0.900000X0.900000X-0.900000X0.900000X0*%
%ADD15C,2.004000*%
%ADD16C,1.440000*%
%ADD17R,1.700000X1.700000*%
%ADD18O,1.700000X1.700000*%
%ADD19RoundRect,0.102000X-0.900000X0.900000X-0.900000X-0.900000X0.900000X-0.900000X0.900000X0.900000X0*%
%ADD20R,2.400000X2.400000*%
%ADD21C,2.400000*%
%ADD22RoundRect,0.250000X-0.475000X0.337500X-0.475000X-0.337500X0.475000X-0.337500X0.475000X0.337500X0*%
%ADD23RoundRect,0.250000X0.475000X-0.337500X0.475000X0.337500X-0.475000X0.337500X-0.475000X-0.337500X0*%
G04 APERTURE END LIST*
D10*
%TO.C,LED1*%
X100000000Y-100525000D03*
D11*
X100000000Y-97985000D03*
%TD*%
D12*
%TO.C,PHR1*%
X92750000Y-98000000D03*
X92750000Y-100500000D03*
%TD*%
D13*
%TO.C,H4*%
X114250000Y-58500000D03*
%TD*%
D14*
%TO.C,J2*%
X105230000Y-58000000D03*
D15*
X107770000Y-58000000D03*
%TD*%
D13*
%TO.C,H1*%
X79000000Y-100750000D03*
%TD*%
%TO.C,H2*%
X79000000Y-58500000D03*
%TD*%
D16*
%TO.C,TR3*%
X113657500Y-87010000D03*
X111117500Y-87010000D03*
X108577500Y-87010000D03*
%TD*%
D17*
%TO.C,JP3*%
X100500000Y-60525000D03*
D18*
X100500000Y-57985000D03*
%TD*%
D19*
%TO.C,J4*%
X78750000Y-87710000D03*
D15*
X78750000Y-90250000D03*
%TD*%
D17*
%TO.C,JP2*%
X91025000Y-79500000D03*
D18*
X88485000Y-79500000D03*
X85945000Y-79500000D03*
%TD*%
D17*
%TO.C,JP1*%
X91000000Y-89500000D03*
D18*
X88460000Y-89500000D03*
X85920000Y-89500000D03*
%TD*%
D20*
%TO.C,J1*%
X80250000Y-66000000D03*
D21*
X80250000Y-69500000D03*
X80250000Y-73000000D03*
%TD*%
D19*
%TO.C,J3*%
X78750000Y-79460000D03*
D15*
X78750000Y-82000000D03*
%TD*%
D16*
%TO.C,TR2*%
X113657500Y-80560000D03*
X111117500Y-80560000D03*
X108577500Y-80560000D03*
%TD*%
%TO.C,TR4*%
X85950000Y-84500000D03*
X88490000Y-84500000D03*
X91030000Y-84500000D03*
%TD*%
%TO.C,TR1*%
X113550000Y-93750000D03*
X111010000Y-93750000D03*
X108470000Y-93750000D03*
%TD*%
D13*
%TO.C,H3*%
X114250000Y-100750000D03*
%TD*%
D17*
%TO.C,JP4*%
X108525000Y-64250000D03*
D18*
X105985000Y-64250000D03*
%TD*%
D22*
%TO.C,C6*%
X105750000Y-71962500D03*
X105750000Y-74037500D03*
%TD*%
D23*
%TO.C,C5*%
X105750000Y-69325000D03*
X105750000Y-67250000D03*
%TD*%
M02*
