%TF.GenerationSoftware,KiCad,Pcbnew,7.0.11-7.0.11~ubuntu22.04.1*%
%TF.CreationDate,2024-03-09T07:06:09+01:00*%
%TF.ProjectId,elcirc2024,656c6369-7263-4323-9032-342e6b696361,rev?*%
%TF.SameCoordinates,Original*%
%TF.FileFunction,Legend,Top*%
%TF.FilePolarity,Positive*%
%FSLAX46Y46*%
G04 Gerber Fmt 4.6, Leading zero omitted, Abs format (unit mm)*
G04 Created by KiCad (PCBNEW 7.0.11-7.0.11~ubuntu22.04.1) date 2024-03-09 07:06:09*
%MOMM*%
%LPD*%
G01*
G04 APERTURE LIST*
%ADD10C,0.250000*%
%ADD11C,0.375000*%
%ADD12C,0.200000*%
%ADD13C,0.300000*%
%ADD14C,0.150000*%
%ADD15C,0.120000*%
%ADD16C,0.127000*%
G04 APERTURE END LIST*
D10*
X90902568Y-103114619D02*
X90902568Y-102114619D01*
X90902568Y-102114619D02*
X91283520Y-102114619D01*
X91283520Y-102114619D02*
X91378758Y-102162238D01*
X91378758Y-102162238D02*
X91426377Y-102209857D01*
X91426377Y-102209857D02*
X91473996Y-102305095D01*
X91473996Y-102305095D02*
X91473996Y-102447952D01*
X91473996Y-102447952D02*
X91426377Y-102543190D01*
X91426377Y-102543190D02*
X91378758Y-102590809D01*
X91378758Y-102590809D02*
X91283520Y-102638428D01*
X91283520Y-102638428D02*
X90902568Y-102638428D01*
X91902568Y-103114619D02*
X91902568Y-102114619D01*
X92331139Y-103114619D02*
X92331139Y-102590809D01*
X92331139Y-102590809D02*
X92283520Y-102495571D01*
X92283520Y-102495571D02*
X92188282Y-102447952D01*
X92188282Y-102447952D02*
X92045425Y-102447952D01*
X92045425Y-102447952D02*
X91950187Y-102495571D01*
X91950187Y-102495571D02*
X91902568Y-102543190D01*
X92950187Y-103114619D02*
X92854949Y-103067000D01*
X92854949Y-103067000D02*
X92807330Y-103019380D01*
X92807330Y-103019380D02*
X92759711Y-102924142D01*
X92759711Y-102924142D02*
X92759711Y-102638428D01*
X92759711Y-102638428D02*
X92807330Y-102543190D01*
X92807330Y-102543190D02*
X92854949Y-102495571D01*
X92854949Y-102495571D02*
X92950187Y-102447952D01*
X92950187Y-102447952D02*
X93093044Y-102447952D01*
X93093044Y-102447952D02*
X93188282Y-102495571D01*
X93188282Y-102495571D02*
X93235901Y-102543190D01*
X93235901Y-102543190D02*
X93283520Y-102638428D01*
X93283520Y-102638428D02*
X93283520Y-102924142D01*
X93283520Y-102924142D02*
X93235901Y-103019380D01*
X93235901Y-103019380D02*
X93188282Y-103067000D01*
X93188282Y-103067000D02*
X93093044Y-103114619D01*
X93093044Y-103114619D02*
X92950187Y-103114619D01*
X93569235Y-102447952D02*
X93950187Y-102447952D01*
X93712092Y-102114619D02*
X93712092Y-102971761D01*
X93712092Y-102971761D02*
X93759711Y-103067000D01*
X93759711Y-103067000D02*
X93854949Y-103114619D01*
X93854949Y-103114619D02*
X93950187Y-103114619D01*
X94426378Y-103114619D02*
X94331140Y-103067000D01*
X94331140Y-103067000D02*
X94283521Y-103019380D01*
X94283521Y-103019380D02*
X94235902Y-102924142D01*
X94235902Y-102924142D02*
X94235902Y-102638428D01*
X94235902Y-102638428D02*
X94283521Y-102543190D01*
X94283521Y-102543190D02*
X94331140Y-102495571D01*
X94331140Y-102495571D02*
X94426378Y-102447952D01*
X94426378Y-102447952D02*
X94569235Y-102447952D01*
X94569235Y-102447952D02*
X94664473Y-102495571D01*
X94664473Y-102495571D02*
X94712092Y-102543190D01*
X94712092Y-102543190D02*
X94759711Y-102638428D01*
X94759711Y-102638428D02*
X94759711Y-102924142D01*
X94759711Y-102924142D02*
X94712092Y-103019380D01*
X94712092Y-103019380D02*
X94664473Y-103067000D01*
X94664473Y-103067000D02*
X94569235Y-103114619D01*
X94569235Y-103114619D02*
X94426378Y-103114619D01*
D11*
X116853852Y-94485738D02*
X116853852Y-92485738D01*
X116853852Y-92485738D02*
X117210995Y-92485738D01*
X117210995Y-92485738D02*
X117425281Y-92580976D01*
X117425281Y-92580976D02*
X117568138Y-92771452D01*
X117568138Y-92771452D02*
X117639567Y-92961928D01*
X117639567Y-92961928D02*
X117710995Y-93342880D01*
X117710995Y-93342880D02*
X117710995Y-93628595D01*
X117710995Y-93628595D02*
X117639567Y-94009547D01*
X117639567Y-94009547D02*
X117568138Y-94200023D01*
X117568138Y-94200023D02*
X117425281Y-94390500D01*
X117425281Y-94390500D02*
X117210995Y-94485738D01*
X117210995Y-94485738D02*
X116853852Y-94485738D01*
D10*
X76254949Y-77117000D02*
X76397806Y-77164619D01*
X76397806Y-77164619D02*
X76635901Y-77164619D01*
X76635901Y-77164619D02*
X76731139Y-77117000D01*
X76731139Y-77117000D02*
X76778758Y-77069380D01*
X76778758Y-77069380D02*
X76826377Y-76974142D01*
X76826377Y-76974142D02*
X76826377Y-76878904D01*
X76826377Y-76878904D02*
X76778758Y-76783666D01*
X76778758Y-76783666D02*
X76731139Y-76736047D01*
X76731139Y-76736047D02*
X76635901Y-76688428D01*
X76635901Y-76688428D02*
X76445425Y-76640809D01*
X76445425Y-76640809D02*
X76350187Y-76593190D01*
X76350187Y-76593190D02*
X76302568Y-76545571D01*
X76302568Y-76545571D02*
X76254949Y-76450333D01*
X76254949Y-76450333D02*
X76254949Y-76355095D01*
X76254949Y-76355095D02*
X76302568Y-76259857D01*
X76302568Y-76259857D02*
X76350187Y-76212238D01*
X76350187Y-76212238D02*
X76445425Y-76164619D01*
X76445425Y-76164619D02*
X76683520Y-76164619D01*
X76683520Y-76164619D02*
X76826377Y-76212238D01*
X77635901Y-77117000D02*
X77540663Y-77164619D01*
X77540663Y-77164619D02*
X77350187Y-77164619D01*
X77350187Y-77164619D02*
X77254949Y-77117000D01*
X77254949Y-77117000D02*
X77207330Y-77021761D01*
X77207330Y-77021761D02*
X77207330Y-76640809D01*
X77207330Y-76640809D02*
X77254949Y-76545571D01*
X77254949Y-76545571D02*
X77350187Y-76497952D01*
X77350187Y-76497952D02*
X77540663Y-76497952D01*
X77540663Y-76497952D02*
X77635901Y-76545571D01*
X77635901Y-76545571D02*
X77683520Y-76640809D01*
X77683520Y-76640809D02*
X77683520Y-76736047D01*
X77683520Y-76736047D02*
X77207330Y-76831285D01*
X77969235Y-76497952D02*
X78350187Y-76497952D01*
X78112092Y-76164619D02*
X78112092Y-77021761D01*
X78112092Y-77021761D02*
X78159711Y-77117000D01*
X78159711Y-77117000D02*
X78254949Y-77164619D01*
X78254949Y-77164619D02*
X78350187Y-77164619D01*
X78683521Y-76497952D02*
X78683521Y-77497952D01*
X78683521Y-76545571D02*
X78778759Y-76497952D01*
X78778759Y-76497952D02*
X78969235Y-76497952D01*
X78969235Y-76497952D02*
X79064473Y-76545571D01*
X79064473Y-76545571D02*
X79112092Y-76593190D01*
X79112092Y-76593190D02*
X79159711Y-76688428D01*
X79159711Y-76688428D02*
X79159711Y-76974142D01*
X79159711Y-76974142D02*
X79112092Y-77069380D01*
X79112092Y-77069380D02*
X79064473Y-77117000D01*
X79064473Y-77117000D02*
X78969235Y-77164619D01*
X78969235Y-77164619D02*
X78778759Y-77164619D01*
X78778759Y-77164619D02*
X78683521Y-77117000D01*
X79731140Y-77164619D02*
X79635902Y-77117000D01*
X79635902Y-77117000D02*
X79588283Y-77069380D01*
X79588283Y-77069380D02*
X79540664Y-76974142D01*
X79540664Y-76974142D02*
X79540664Y-76688428D01*
X79540664Y-76688428D02*
X79588283Y-76593190D01*
X79588283Y-76593190D02*
X79635902Y-76545571D01*
X79635902Y-76545571D02*
X79731140Y-76497952D01*
X79731140Y-76497952D02*
X79873997Y-76497952D01*
X79873997Y-76497952D02*
X79969235Y-76545571D01*
X79969235Y-76545571D02*
X80016854Y-76593190D01*
X80016854Y-76593190D02*
X80064473Y-76688428D01*
X80064473Y-76688428D02*
X80064473Y-76974142D01*
X80064473Y-76974142D02*
X80016854Y-77069380D01*
X80016854Y-77069380D02*
X79969235Y-77117000D01*
X79969235Y-77117000D02*
X79873997Y-77164619D01*
X79873997Y-77164619D02*
X79731140Y-77164619D01*
X80493045Y-77164619D02*
X80493045Y-76497952D01*
X80493045Y-76164619D02*
X80445426Y-76212238D01*
X80445426Y-76212238D02*
X80493045Y-76259857D01*
X80493045Y-76259857D02*
X80540664Y-76212238D01*
X80540664Y-76212238D02*
X80493045Y-76164619D01*
X80493045Y-76164619D02*
X80493045Y-76259857D01*
X80969235Y-76497952D02*
X80969235Y-77164619D01*
X80969235Y-76593190D02*
X81016854Y-76545571D01*
X81016854Y-76545571D02*
X81112092Y-76497952D01*
X81112092Y-76497952D02*
X81254949Y-76497952D01*
X81254949Y-76497952D02*
X81350187Y-76545571D01*
X81350187Y-76545571D02*
X81397806Y-76640809D01*
X81397806Y-76640809D02*
X81397806Y-77164619D01*
X81731140Y-76497952D02*
X82112092Y-76497952D01*
X81873997Y-76164619D02*
X81873997Y-77021761D01*
X81873997Y-77021761D02*
X81921616Y-77117000D01*
X81921616Y-77117000D02*
X82016854Y-77164619D01*
X82016854Y-77164619D02*
X82112092Y-77164619D01*
D12*
X89869673Y-77117219D02*
X89869673Y-76117219D01*
X90345863Y-76450552D02*
X90345863Y-77117219D01*
X90345863Y-76545790D02*
X90393482Y-76498171D01*
X90393482Y-76498171D02*
X90488720Y-76450552D01*
X90488720Y-76450552D02*
X90631577Y-76450552D01*
X90631577Y-76450552D02*
X90726815Y-76498171D01*
X90726815Y-76498171D02*
X90774434Y-76593409D01*
X90774434Y-76593409D02*
X90774434Y-77117219D01*
X91107768Y-76450552D02*
X91488720Y-76450552D01*
X91250625Y-76117219D02*
X91250625Y-76974361D01*
X91250625Y-76974361D02*
X91298244Y-77069600D01*
X91298244Y-77069600D02*
X91393482Y-77117219D01*
X91393482Y-77117219D02*
X91488720Y-77117219D01*
D10*
X84516333Y-71152568D02*
X84516333Y-71914473D01*
X84135380Y-72914472D02*
X84135380Y-72343044D01*
X84135380Y-72628758D02*
X85135380Y-72628758D01*
X85135380Y-72628758D02*
X84992523Y-72533520D01*
X84992523Y-72533520D02*
X84897285Y-72438282D01*
X84897285Y-72438282D02*
X84849666Y-72343044D01*
X85040142Y-73295425D02*
X85087761Y-73343044D01*
X85087761Y-73343044D02*
X85135380Y-73438282D01*
X85135380Y-73438282D02*
X85135380Y-73676377D01*
X85135380Y-73676377D02*
X85087761Y-73771615D01*
X85087761Y-73771615D02*
X85040142Y-73819234D01*
X85040142Y-73819234D02*
X84944904Y-73866853D01*
X84944904Y-73866853D02*
X84849666Y-73866853D01*
X84849666Y-73866853D02*
X84706809Y-73819234D01*
X84706809Y-73819234D02*
X84135380Y-73247806D01*
X84135380Y-73247806D02*
X84135380Y-73866853D01*
X85135380Y-74152568D02*
X84135380Y-74485901D01*
X84135380Y-74485901D02*
X85135380Y-74819234D01*
X99628758Y-104114619D02*
X99152568Y-104114619D01*
X99152568Y-104114619D02*
X99152568Y-103114619D01*
X99962092Y-103590809D02*
X100295425Y-103590809D01*
X100438282Y-104114619D02*
X99962092Y-104114619D01*
X99962092Y-104114619D02*
X99962092Y-103114619D01*
X99962092Y-103114619D02*
X100438282Y-103114619D01*
X100866854Y-104114619D02*
X100866854Y-103114619D01*
X100866854Y-103114619D02*
X101104949Y-103114619D01*
X101104949Y-103114619D02*
X101247806Y-103162238D01*
X101247806Y-103162238D02*
X101343044Y-103257476D01*
X101343044Y-103257476D02*
X101390663Y-103352714D01*
X101390663Y-103352714D02*
X101438282Y-103543190D01*
X101438282Y-103543190D02*
X101438282Y-103686047D01*
X101438282Y-103686047D02*
X101390663Y-103876523D01*
X101390663Y-103876523D02*
X101343044Y-103971761D01*
X101343044Y-103971761D02*
X101247806Y-104067000D01*
X101247806Y-104067000D02*
X101104949Y-104114619D01*
X101104949Y-104114619D02*
X100866854Y-104114619D01*
D11*
X116853852Y-81735738D02*
X116853852Y-79735738D01*
X116853852Y-79735738D02*
X117425281Y-79735738D01*
X117425281Y-79735738D02*
X117568138Y-79830976D01*
X117568138Y-79830976D02*
X117639567Y-79926214D01*
X117639567Y-79926214D02*
X117710995Y-80116690D01*
X117710995Y-80116690D02*
X117710995Y-80402404D01*
X117710995Y-80402404D02*
X117639567Y-80592880D01*
X117639567Y-80592880D02*
X117568138Y-80688119D01*
X117568138Y-80688119D02*
X117425281Y-80783357D01*
X117425281Y-80783357D02*
X116853852Y-80783357D01*
X117103852Y-88235738D02*
X117103852Y-86235738D01*
D10*
X85087761Y-69676377D02*
X85135380Y-69581139D01*
X85135380Y-69581139D02*
X85135380Y-69438282D01*
X85135380Y-69438282D02*
X85087761Y-69295425D01*
X85087761Y-69295425D02*
X84992523Y-69200187D01*
X84992523Y-69200187D02*
X84897285Y-69152568D01*
X84897285Y-69152568D02*
X84706809Y-69104949D01*
X84706809Y-69104949D02*
X84563952Y-69104949D01*
X84563952Y-69104949D02*
X84373476Y-69152568D01*
X84373476Y-69152568D02*
X84278238Y-69200187D01*
X84278238Y-69200187D02*
X84183000Y-69295425D01*
X84183000Y-69295425D02*
X84135380Y-69438282D01*
X84135380Y-69438282D02*
X84135380Y-69533520D01*
X84135380Y-69533520D02*
X84183000Y-69676377D01*
X84183000Y-69676377D02*
X84230619Y-69723996D01*
X84230619Y-69723996D02*
X84563952Y-69723996D01*
X84563952Y-69723996D02*
X84563952Y-69533520D01*
X76354949Y-93317000D02*
X76497806Y-93364619D01*
X76497806Y-93364619D02*
X76735901Y-93364619D01*
X76735901Y-93364619D02*
X76831139Y-93317000D01*
X76831139Y-93317000D02*
X76878758Y-93269380D01*
X76878758Y-93269380D02*
X76926377Y-93174142D01*
X76926377Y-93174142D02*
X76926377Y-93078904D01*
X76926377Y-93078904D02*
X76878758Y-92983666D01*
X76878758Y-92983666D02*
X76831139Y-92936047D01*
X76831139Y-92936047D02*
X76735901Y-92888428D01*
X76735901Y-92888428D02*
X76545425Y-92840809D01*
X76545425Y-92840809D02*
X76450187Y-92793190D01*
X76450187Y-92793190D02*
X76402568Y-92745571D01*
X76402568Y-92745571D02*
X76354949Y-92650333D01*
X76354949Y-92650333D02*
X76354949Y-92555095D01*
X76354949Y-92555095D02*
X76402568Y-92459857D01*
X76402568Y-92459857D02*
X76450187Y-92412238D01*
X76450187Y-92412238D02*
X76545425Y-92364619D01*
X76545425Y-92364619D02*
X76783520Y-92364619D01*
X76783520Y-92364619D02*
X76926377Y-92412238D01*
X77735901Y-93317000D02*
X77640663Y-93364619D01*
X77640663Y-93364619D02*
X77450187Y-93364619D01*
X77450187Y-93364619D02*
X77354949Y-93317000D01*
X77354949Y-93317000D02*
X77307330Y-93221761D01*
X77307330Y-93221761D02*
X77307330Y-92840809D01*
X77307330Y-92840809D02*
X77354949Y-92745571D01*
X77354949Y-92745571D02*
X77450187Y-92697952D01*
X77450187Y-92697952D02*
X77640663Y-92697952D01*
X77640663Y-92697952D02*
X77735901Y-92745571D01*
X77735901Y-92745571D02*
X77783520Y-92840809D01*
X77783520Y-92840809D02*
X77783520Y-92936047D01*
X77783520Y-92936047D02*
X77307330Y-93031285D01*
X78212092Y-92697952D02*
X78212092Y-93364619D01*
X78212092Y-92793190D02*
X78259711Y-92745571D01*
X78259711Y-92745571D02*
X78354949Y-92697952D01*
X78354949Y-92697952D02*
X78497806Y-92697952D01*
X78497806Y-92697952D02*
X78593044Y-92745571D01*
X78593044Y-92745571D02*
X78640663Y-92840809D01*
X78640663Y-92840809D02*
X78640663Y-93364619D01*
X79069235Y-93317000D02*
X79164473Y-93364619D01*
X79164473Y-93364619D02*
X79354949Y-93364619D01*
X79354949Y-93364619D02*
X79450187Y-93317000D01*
X79450187Y-93317000D02*
X79497806Y-93221761D01*
X79497806Y-93221761D02*
X79497806Y-93174142D01*
X79497806Y-93174142D02*
X79450187Y-93078904D01*
X79450187Y-93078904D02*
X79354949Y-93031285D01*
X79354949Y-93031285D02*
X79212092Y-93031285D01*
X79212092Y-93031285D02*
X79116854Y-92983666D01*
X79116854Y-92983666D02*
X79069235Y-92888428D01*
X79069235Y-92888428D02*
X79069235Y-92840809D01*
X79069235Y-92840809D02*
X79116854Y-92745571D01*
X79116854Y-92745571D02*
X79212092Y-92697952D01*
X79212092Y-92697952D02*
X79354949Y-92697952D01*
X79354949Y-92697952D02*
X79450187Y-92745571D01*
X80069235Y-93364619D02*
X79973997Y-93317000D01*
X79973997Y-93317000D02*
X79926378Y-93269380D01*
X79926378Y-93269380D02*
X79878759Y-93174142D01*
X79878759Y-93174142D02*
X79878759Y-92888428D01*
X79878759Y-92888428D02*
X79926378Y-92793190D01*
X79926378Y-92793190D02*
X79973997Y-92745571D01*
X79973997Y-92745571D02*
X80069235Y-92697952D01*
X80069235Y-92697952D02*
X80212092Y-92697952D01*
X80212092Y-92697952D02*
X80307330Y-92745571D01*
X80307330Y-92745571D02*
X80354949Y-92793190D01*
X80354949Y-92793190D02*
X80402568Y-92888428D01*
X80402568Y-92888428D02*
X80402568Y-93174142D01*
X80402568Y-93174142D02*
X80354949Y-93269380D01*
X80354949Y-93269380D02*
X80307330Y-93317000D01*
X80307330Y-93317000D02*
X80212092Y-93364619D01*
X80212092Y-93364619D02*
X80069235Y-93364619D01*
X80831140Y-93364619D02*
X80831140Y-92697952D01*
X80831140Y-92888428D02*
X80878759Y-92793190D01*
X80878759Y-92793190D02*
X80926378Y-92745571D01*
X80926378Y-92745571D02*
X81021616Y-92697952D01*
X81021616Y-92697952D02*
X81116854Y-92697952D01*
D12*
X85869673Y-76593409D02*
X86203006Y-76593409D01*
X86345863Y-77117219D02*
X85869673Y-77117219D01*
X85869673Y-77117219D02*
X85869673Y-76117219D01*
X85869673Y-76117219D02*
X86345863Y-76117219D01*
X86679197Y-77117219D02*
X87203006Y-76450552D01*
X86679197Y-76450552D02*
X87203006Y-77117219D01*
X87441102Y-76450552D02*
X87822054Y-76450552D01*
X87583959Y-76117219D02*
X87583959Y-76974361D01*
X87583959Y-76974361D02*
X87631578Y-77069600D01*
X87631578Y-77069600D02*
X87726816Y-77117219D01*
X87726816Y-77117219D02*
X87822054Y-77117219D01*
X93672530Y-60549438D02*
X93577292Y-60501819D01*
X93577292Y-60501819D02*
X93529673Y-60454199D01*
X93529673Y-60454199D02*
X93482054Y-60358961D01*
X93482054Y-60358961D02*
X93482054Y-60073247D01*
X93482054Y-60073247D02*
X93529673Y-59978009D01*
X93529673Y-59978009D02*
X93577292Y-59930390D01*
X93577292Y-59930390D02*
X93672530Y-59882771D01*
X93672530Y-59882771D02*
X93815387Y-59882771D01*
X93815387Y-59882771D02*
X93910625Y-59930390D01*
X93910625Y-59930390D02*
X93958244Y-59978009D01*
X93958244Y-59978009D02*
X94005863Y-60073247D01*
X94005863Y-60073247D02*
X94005863Y-60358961D01*
X94005863Y-60358961D02*
X93958244Y-60454199D01*
X93958244Y-60454199D02*
X93910625Y-60501819D01*
X93910625Y-60501819D02*
X93815387Y-60549438D01*
X93815387Y-60549438D02*
X93672530Y-60549438D01*
X94434435Y-59882771D02*
X94434435Y-60549438D01*
X94434435Y-59978009D02*
X94482054Y-59930390D01*
X94482054Y-59930390D02*
X94577292Y-59882771D01*
X94577292Y-59882771D02*
X94720149Y-59882771D01*
X94720149Y-59882771D02*
X94815387Y-59930390D01*
X94815387Y-59930390D02*
X94863006Y-60025628D01*
X94863006Y-60025628D02*
X94863006Y-60549438D01*
X95339197Y-60168485D02*
X96101102Y-60168485D01*
X96720149Y-60549438D02*
X96624911Y-60501819D01*
X96624911Y-60501819D02*
X96577292Y-60454199D01*
X96577292Y-60454199D02*
X96529673Y-60358961D01*
X96529673Y-60358961D02*
X96529673Y-60073247D01*
X96529673Y-60073247D02*
X96577292Y-59978009D01*
X96577292Y-59978009D02*
X96624911Y-59930390D01*
X96624911Y-59930390D02*
X96720149Y-59882771D01*
X96720149Y-59882771D02*
X96863006Y-59882771D01*
X96863006Y-59882771D02*
X96958244Y-59930390D01*
X96958244Y-59930390D02*
X97005863Y-59978009D01*
X97005863Y-59978009D02*
X97053482Y-60073247D01*
X97053482Y-60073247D02*
X97053482Y-60358961D01*
X97053482Y-60358961D02*
X97005863Y-60454199D01*
X97005863Y-60454199D02*
X96958244Y-60501819D01*
X96958244Y-60501819D02*
X96863006Y-60549438D01*
X96863006Y-60549438D02*
X96720149Y-60549438D01*
X97339197Y-59882771D02*
X97720149Y-59882771D01*
X97482054Y-60549438D02*
X97482054Y-59692295D01*
X97482054Y-59692295D02*
X97529673Y-59597057D01*
X97529673Y-59597057D02*
X97624911Y-59549438D01*
X97624911Y-59549438D02*
X97720149Y-59549438D01*
X97910626Y-59882771D02*
X98291578Y-59882771D01*
X98053483Y-60549438D02*
X98053483Y-59692295D01*
X98053483Y-59692295D02*
X98101102Y-59597057D01*
X98101102Y-59597057D02*
X98196340Y-59549438D01*
X98196340Y-59549438D02*
X98291578Y-59549438D01*
D10*
X84516333Y-63902568D02*
X84516333Y-64664473D01*
X84135380Y-64283520D02*
X84897285Y-64283520D01*
X84135380Y-65664472D02*
X84135380Y-65093044D01*
X84135380Y-65378758D02*
X85135380Y-65378758D01*
X85135380Y-65378758D02*
X84992523Y-65283520D01*
X84992523Y-65283520D02*
X84897285Y-65188282D01*
X84897285Y-65188282D02*
X84849666Y-65093044D01*
X85040142Y-66045425D02*
X85087761Y-66093044D01*
X85087761Y-66093044D02*
X85135380Y-66188282D01*
X85135380Y-66188282D02*
X85135380Y-66426377D01*
X85135380Y-66426377D02*
X85087761Y-66521615D01*
X85087761Y-66521615D02*
X85040142Y-66569234D01*
X85040142Y-66569234D02*
X84944904Y-66616853D01*
X84944904Y-66616853D02*
X84849666Y-66616853D01*
X84849666Y-66616853D02*
X84706809Y-66569234D01*
X84706809Y-66569234D02*
X84135380Y-65997806D01*
X84135380Y-65997806D02*
X84135380Y-66616853D01*
X85135380Y-66902568D02*
X84135380Y-67235901D01*
X84135380Y-67235901D02*
X85135380Y-67569234D01*
D13*
X84425939Y-100723257D02*
X84361653Y-100780400D01*
X84361653Y-100780400D02*
X84183082Y-100837542D01*
X84183082Y-100837542D02*
X84068796Y-100837542D01*
X84068796Y-100837542D02*
X83904510Y-100780400D01*
X83904510Y-100780400D02*
X83804510Y-100666114D01*
X83804510Y-100666114D02*
X83761653Y-100551828D01*
X83761653Y-100551828D02*
X83733082Y-100323257D01*
X83733082Y-100323257D02*
X83754510Y-100151828D01*
X83754510Y-100151828D02*
X83840225Y-99923257D01*
X83840225Y-99923257D02*
X83911653Y-99808971D01*
X83911653Y-99808971D02*
X84040225Y-99694685D01*
X84040225Y-99694685D02*
X84218796Y-99637542D01*
X84218796Y-99637542D02*
X84333082Y-99637542D01*
X84333082Y-99637542D02*
X84497368Y-99694685D01*
X84497368Y-99694685D02*
X84547368Y-99751828D01*
X85097368Y-100837542D02*
X84990225Y-100780400D01*
X84990225Y-100780400D02*
X84940225Y-100723257D01*
X84940225Y-100723257D02*
X84897368Y-100608971D01*
X84897368Y-100608971D02*
X84940225Y-100266114D01*
X84940225Y-100266114D02*
X85011653Y-100151828D01*
X85011653Y-100151828D02*
X85075939Y-100094685D01*
X85075939Y-100094685D02*
X85197368Y-100037542D01*
X85197368Y-100037542D02*
X85368796Y-100037542D01*
X85368796Y-100037542D02*
X85475939Y-100094685D01*
X85475939Y-100094685D02*
X85525939Y-100151828D01*
X85525939Y-100151828D02*
X85568796Y-100266114D01*
X85568796Y-100266114D02*
X85525939Y-100608971D01*
X85525939Y-100608971D02*
X85454510Y-100723257D01*
X85454510Y-100723257D02*
X85390225Y-100780400D01*
X85390225Y-100780400D02*
X85268796Y-100837542D01*
X85268796Y-100837542D02*
X85097368Y-100837542D01*
X86625939Y-100037542D02*
X86525939Y-100837542D01*
X86111653Y-100037542D02*
X86033082Y-100666114D01*
X86033082Y-100666114D02*
X86075939Y-100780400D01*
X86075939Y-100780400D02*
X86183082Y-100837542D01*
X86183082Y-100837542D02*
X86354510Y-100837542D01*
X86354510Y-100837542D02*
X86475939Y-100780400D01*
X86475939Y-100780400D02*
X86540224Y-100723257D01*
X87097367Y-100837542D02*
X87197367Y-100037542D01*
X87168796Y-100266114D02*
X87240224Y-100151828D01*
X87240224Y-100151828D02*
X87304510Y-100094685D01*
X87304510Y-100094685D02*
X87425938Y-100037542D01*
X87425938Y-100037542D02*
X87540224Y-100037542D01*
X87790224Y-100780400D02*
X87897367Y-100837542D01*
X87897367Y-100837542D02*
X88125938Y-100837542D01*
X88125938Y-100837542D02*
X88247367Y-100780400D01*
X88247367Y-100780400D02*
X88318795Y-100666114D01*
X88318795Y-100666114D02*
X88325938Y-100608971D01*
X88325938Y-100608971D02*
X88283081Y-100494685D01*
X88283081Y-100494685D02*
X88175938Y-100437542D01*
X88175938Y-100437542D02*
X88004510Y-100437542D01*
X88004510Y-100437542D02*
X87897367Y-100380400D01*
X87897367Y-100380400D02*
X87854510Y-100266114D01*
X87854510Y-100266114D02*
X87861653Y-100208971D01*
X87861653Y-100208971D02*
X87933081Y-100094685D01*
X87933081Y-100094685D02*
X88054510Y-100037542D01*
X88054510Y-100037542D02*
X88225938Y-100037542D01*
X88225938Y-100037542D02*
X88333081Y-100094685D01*
X89275939Y-100780400D02*
X89154510Y-100837542D01*
X89154510Y-100837542D02*
X88925939Y-100837542D01*
X88925939Y-100837542D02*
X88818796Y-100780400D01*
X88818796Y-100780400D02*
X88775939Y-100666114D01*
X88775939Y-100666114D02*
X88833082Y-100208971D01*
X88833082Y-100208971D02*
X88904510Y-100094685D01*
X88904510Y-100094685D02*
X89025939Y-100037542D01*
X89025939Y-100037542D02*
X89254510Y-100037542D01*
X89254510Y-100037542D02*
X89361653Y-100094685D01*
X89361653Y-100094685D02*
X89404510Y-100208971D01*
X89404510Y-100208971D02*
X89390224Y-100323257D01*
X89390224Y-100323257D02*
X88804510Y-100437542D01*
D12*
X89869673Y-92867219D02*
X89869673Y-91867219D01*
X90345863Y-92200552D02*
X90345863Y-92867219D01*
X90345863Y-92295790D02*
X90393482Y-92248171D01*
X90393482Y-92248171D02*
X90488720Y-92200552D01*
X90488720Y-92200552D02*
X90631577Y-92200552D01*
X90631577Y-92200552D02*
X90726815Y-92248171D01*
X90726815Y-92248171D02*
X90774434Y-92343409D01*
X90774434Y-92343409D02*
X90774434Y-92867219D01*
X91107768Y-92200552D02*
X91488720Y-92200552D01*
X91250625Y-91867219D02*
X91250625Y-92724361D01*
X91250625Y-92724361D02*
X91298244Y-92819600D01*
X91298244Y-92819600D02*
X91393482Y-92867219D01*
X91393482Y-92867219D02*
X91488720Y-92867219D01*
X85869673Y-92343409D02*
X86203006Y-92343409D01*
X86345863Y-92867219D02*
X85869673Y-92867219D01*
X85869673Y-92867219D02*
X85869673Y-91867219D01*
X85869673Y-91867219D02*
X86345863Y-91867219D01*
X86679197Y-92867219D02*
X87203006Y-92200552D01*
X86679197Y-92200552D02*
X87203006Y-92867219D01*
X87441102Y-92200552D02*
X87822054Y-92200552D01*
X87583959Y-91867219D02*
X87583959Y-92724361D01*
X87583959Y-92724361D02*
X87631578Y-92819600D01*
X87631578Y-92819600D02*
X87726816Y-92867219D01*
X87726816Y-92867219D02*
X87822054Y-92867219D01*
X96595863Y-59117219D02*
X96119673Y-59117219D01*
X96119673Y-59117219D02*
X96119673Y-58117219D01*
X96929197Y-58593409D02*
X97262530Y-58593409D01*
X97405387Y-59117219D02*
X96929197Y-59117219D01*
X96929197Y-59117219D02*
X96929197Y-58117219D01*
X96929197Y-58117219D02*
X97405387Y-58117219D01*
X97833959Y-59117219D02*
X97833959Y-58117219D01*
X97833959Y-58117219D02*
X98072054Y-58117219D01*
X98072054Y-58117219D02*
X98214911Y-58164838D01*
X98214911Y-58164838D02*
X98310149Y-58260076D01*
X98310149Y-58260076D02*
X98357768Y-58355314D01*
X98357768Y-58355314D02*
X98405387Y-58545790D01*
X98405387Y-58545790D02*
X98405387Y-58688647D01*
X98405387Y-58688647D02*
X98357768Y-58879123D01*
X98357768Y-58879123D02*
X98310149Y-58974361D01*
X98310149Y-58974361D02*
X98214911Y-59069600D01*
X98214911Y-59069600D02*
X98072054Y-59117219D01*
X98072054Y-59117219D02*
X97833959Y-59117219D01*
D13*
X76211653Y-95744685D02*
X76783082Y-95744685D01*
X76054510Y-96087542D02*
X76604510Y-94887542D01*
X76604510Y-94887542D02*
X76854510Y-96087542D01*
X77354510Y-95287542D02*
X77254510Y-96087542D01*
X77340224Y-95401828D02*
X77404510Y-95344685D01*
X77404510Y-95344685D02*
X77525939Y-95287542D01*
X77525939Y-95287542D02*
X77697367Y-95287542D01*
X77697367Y-95287542D02*
X77804510Y-95344685D01*
X77804510Y-95344685D02*
X77847367Y-95458971D01*
X77847367Y-95458971D02*
X77768796Y-96087542D01*
X78854510Y-96087542D02*
X78933081Y-95458971D01*
X78933081Y-95458971D02*
X78890224Y-95344685D01*
X78890224Y-95344685D02*
X78783081Y-95287542D01*
X78783081Y-95287542D02*
X78554510Y-95287542D01*
X78554510Y-95287542D02*
X78433081Y-95344685D01*
X78861653Y-96030400D02*
X78740224Y-96087542D01*
X78740224Y-96087542D02*
X78454510Y-96087542D01*
X78454510Y-96087542D02*
X78347367Y-96030400D01*
X78347367Y-96030400D02*
X78304510Y-95916114D01*
X78304510Y-95916114D02*
X78318795Y-95801828D01*
X78318795Y-95801828D02*
X78390224Y-95687542D01*
X78390224Y-95687542D02*
X78511653Y-95630400D01*
X78511653Y-95630400D02*
X78797367Y-95630400D01*
X78797367Y-95630400D02*
X78918795Y-95573257D01*
X79597367Y-96087542D02*
X79490224Y-96030400D01*
X79490224Y-96030400D02*
X79447367Y-95916114D01*
X79447367Y-95916114D02*
X79575938Y-94887542D01*
X80225938Y-96087542D02*
X80118795Y-96030400D01*
X80118795Y-96030400D02*
X80068795Y-95973257D01*
X80068795Y-95973257D02*
X80025938Y-95858971D01*
X80025938Y-95858971D02*
X80068795Y-95516114D01*
X80068795Y-95516114D02*
X80140223Y-95401828D01*
X80140223Y-95401828D02*
X80204509Y-95344685D01*
X80204509Y-95344685D02*
X80325938Y-95287542D01*
X80325938Y-95287542D02*
X80497366Y-95287542D01*
X80497366Y-95287542D02*
X80604509Y-95344685D01*
X80604509Y-95344685D02*
X80654509Y-95401828D01*
X80654509Y-95401828D02*
X80697366Y-95516114D01*
X80697366Y-95516114D02*
X80654509Y-95858971D01*
X80654509Y-95858971D02*
X80583080Y-95973257D01*
X80583080Y-95973257D02*
X80518795Y-96030400D01*
X80518795Y-96030400D02*
X80397366Y-96087542D01*
X80397366Y-96087542D02*
X80225938Y-96087542D01*
X81754509Y-95287542D02*
X81633080Y-96258971D01*
X81633080Y-96258971D02*
X81561652Y-96373257D01*
X81561652Y-96373257D02*
X81497366Y-96430400D01*
X81497366Y-96430400D02*
X81375937Y-96487542D01*
X81375937Y-96487542D02*
X81204509Y-96487542D01*
X81204509Y-96487542D02*
X81097366Y-96430400D01*
X81661652Y-96030400D02*
X81540223Y-96087542D01*
X81540223Y-96087542D02*
X81311652Y-96087542D01*
X81311652Y-96087542D02*
X81204509Y-96030400D01*
X81204509Y-96030400D02*
X81154509Y-95973257D01*
X81154509Y-95973257D02*
X81111652Y-95858971D01*
X81111652Y-95858971D02*
X81154509Y-95516114D01*
X81154509Y-95516114D02*
X81225937Y-95401828D01*
X81225937Y-95401828D02*
X81290223Y-95344685D01*
X81290223Y-95344685D02*
X81411652Y-95287542D01*
X81411652Y-95287542D02*
X81640223Y-95287542D01*
X81640223Y-95287542D02*
X81747366Y-95344685D01*
X83140223Y-96087542D02*
X83290223Y-94887542D01*
X83290223Y-94887542D02*
X83747366Y-94887542D01*
X83747366Y-94887542D02*
X83854509Y-94944685D01*
X83854509Y-94944685D02*
X83904509Y-95001828D01*
X83904509Y-95001828D02*
X83947366Y-95116114D01*
X83947366Y-95116114D02*
X83925937Y-95287542D01*
X83925937Y-95287542D02*
X83854509Y-95401828D01*
X83854509Y-95401828D02*
X83790223Y-95458971D01*
X83790223Y-95458971D02*
X83668794Y-95516114D01*
X83668794Y-95516114D02*
X83211652Y-95516114D01*
X84340223Y-96087542D02*
X84490223Y-94887542D01*
X84911652Y-96087542D02*
X85061652Y-94887542D01*
X85061652Y-94887542D02*
X85347366Y-94887542D01*
X85347366Y-94887542D02*
X85511652Y-94944685D01*
X85511652Y-94944685D02*
X85611652Y-95058971D01*
X85611652Y-95058971D02*
X85654509Y-95173257D01*
X85654509Y-95173257D02*
X85683081Y-95401828D01*
X85683081Y-95401828D02*
X85661652Y-95573257D01*
X85661652Y-95573257D02*
X85575938Y-95801828D01*
X85575938Y-95801828D02*
X85504509Y-95916114D01*
X85504509Y-95916114D02*
X85375938Y-96030400D01*
X85375938Y-96030400D02*
X85197366Y-96087542D01*
X85197366Y-96087542D02*
X84911652Y-96087542D01*
X87725938Y-95973257D02*
X87661652Y-96030400D01*
X87661652Y-96030400D02*
X87483081Y-96087542D01*
X87483081Y-96087542D02*
X87368795Y-96087542D01*
X87368795Y-96087542D02*
X87204509Y-96030400D01*
X87204509Y-96030400D02*
X87104509Y-95916114D01*
X87104509Y-95916114D02*
X87061652Y-95801828D01*
X87061652Y-95801828D02*
X87033081Y-95573257D01*
X87033081Y-95573257D02*
X87054509Y-95401828D01*
X87054509Y-95401828D02*
X87140224Y-95173257D01*
X87140224Y-95173257D02*
X87211652Y-95058971D01*
X87211652Y-95058971D02*
X87340224Y-94944685D01*
X87340224Y-94944685D02*
X87518795Y-94887542D01*
X87518795Y-94887542D02*
X87633081Y-94887542D01*
X87633081Y-94887542D02*
X87797367Y-94944685D01*
X87797367Y-94944685D02*
X87847367Y-95001828D01*
X88397367Y-96087542D02*
X88290224Y-96030400D01*
X88290224Y-96030400D02*
X88240224Y-95973257D01*
X88240224Y-95973257D02*
X88197367Y-95858971D01*
X88197367Y-95858971D02*
X88240224Y-95516114D01*
X88240224Y-95516114D02*
X88311652Y-95401828D01*
X88311652Y-95401828D02*
X88375938Y-95344685D01*
X88375938Y-95344685D02*
X88497367Y-95287542D01*
X88497367Y-95287542D02*
X88668795Y-95287542D01*
X88668795Y-95287542D02*
X88775938Y-95344685D01*
X88775938Y-95344685D02*
X88825938Y-95401828D01*
X88825938Y-95401828D02*
X88868795Y-95516114D01*
X88868795Y-95516114D02*
X88825938Y-95858971D01*
X88825938Y-95858971D02*
X88754509Y-95973257D01*
X88754509Y-95973257D02*
X88690224Y-96030400D01*
X88690224Y-96030400D02*
X88568795Y-96087542D01*
X88568795Y-96087542D02*
X88397367Y-96087542D01*
X89411652Y-95287542D02*
X89311652Y-96087542D01*
X89397366Y-95401828D02*
X89461652Y-95344685D01*
X89461652Y-95344685D02*
X89583081Y-95287542D01*
X89583081Y-95287542D02*
X89754509Y-95287542D01*
X89754509Y-95287542D02*
X89861652Y-95344685D01*
X89861652Y-95344685D02*
X89904509Y-95458971D01*
X89904509Y-95458971D02*
X89825938Y-96087542D01*
X90325937Y-95287542D02*
X90783080Y-95287542D01*
X90547366Y-94887542D02*
X90418795Y-95916114D01*
X90418795Y-95916114D02*
X90461652Y-96030400D01*
X90461652Y-96030400D02*
X90568795Y-96087542D01*
X90568795Y-96087542D02*
X90683080Y-96087542D01*
X91083080Y-96087542D02*
X91183080Y-95287542D01*
X91154509Y-95516114D02*
X91225937Y-95401828D01*
X91225937Y-95401828D02*
X91290223Y-95344685D01*
X91290223Y-95344685D02*
X91411651Y-95287542D01*
X91411651Y-95287542D02*
X91525937Y-95287542D01*
X91997366Y-96087542D02*
X91890223Y-96030400D01*
X91890223Y-96030400D02*
X91840223Y-95973257D01*
X91840223Y-95973257D02*
X91797366Y-95858971D01*
X91797366Y-95858971D02*
X91840223Y-95516114D01*
X91840223Y-95516114D02*
X91911651Y-95401828D01*
X91911651Y-95401828D02*
X91975937Y-95344685D01*
X91975937Y-95344685D02*
X92097366Y-95287542D01*
X92097366Y-95287542D02*
X92268794Y-95287542D01*
X92268794Y-95287542D02*
X92375937Y-95344685D01*
X92375937Y-95344685D02*
X92425937Y-95401828D01*
X92425937Y-95401828D02*
X92468794Y-95516114D01*
X92468794Y-95516114D02*
X92425937Y-95858971D01*
X92425937Y-95858971D02*
X92354508Y-95973257D01*
X92354508Y-95973257D02*
X92290223Y-96030400D01*
X92290223Y-96030400D02*
X92168794Y-96087542D01*
X92168794Y-96087542D02*
X91997366Y-96087542D01*
X93083080Y-96087542D02*
X92975937Y-96030400D01*
X92975937Y-96030400D02*
X92933080Y-95916114D01*
X92933080Y-95916114D02*
X93061651Y-94887542D01*
X93711651Y-96087542D02*
X93604508Y-96030400D01*
X93604508Y-96030400D02*
X93561651Y-95916114D01*
X93561651Y-95916114D02*
X93690222Y-94887542D01*
X94633079Y-96030400D02*
X94511650Y-96087542D01*
X94511650Y-96087542D02*
X94283079Y-96087542D01*
X94283079Y-96087542D02*
X94175936Y-96030400D01*
X94175936Y-96030400D02*
X94133079Y-95916114D01*
X94133079Y-95916114D02*
X94190222Y-95458971D01*
X94190222Y-95458971D02*
X94261650Y-95344685D01*
X94261650Y-95344685D02*
X94383079Y-95287542D01*
X94383079Y-95287542D02*
X94611650Y-95287542D01*
X94611650Y-95287542D02*
X94718793Y-95344685D01*
X94718793Y-95344685D02*
X94761650Y-95458971D01*
X94761650Y-95458971D02*
X94747364Y-95573257D01*
X94747364Y-95573257D02*
X94161650Y-95687542D01*
X95197364Y-96087542D02*
X95297364Y-95287542D01*
X95268793Y-95516114D02*
X95340221Y-95401828D01*
X95340221Y-95401828D02*
X95404507Y-95344685D01*
X95404507Y-95344685D02*
X95525935Y-95287542D01*
X95525935Y-95287542D02*
X95640221Y-95287542D01*
D12*
X110869673Y-62867219D02*
X110869673Y-61867219D01*
X110869673Y-61867219D02*
X111107768Y-61867219D01*
X111107768Y-61867219D02*
X111250625Y-61914838D01*
X111250625Y-61914838D02*
X111345863Y-62010076D01*
X111345863Y-62010076D02*
X111393482Y-62105314D01*
X111393482Y-62105314D02*
X111441101Y-62295790D01*
X111441101Y-62295790D02*
X111441101Y-62438647D01*
X111441101Y-62438647D02*
X111393482Y-62629123D01*
X111393482Y-62629123D02*
X111345863Y-62724361D01*
X111345863Y-62724361D02*
X111250625Y-62819600D01*
X111250625Y-62819600D02*
X111107768Y-62867219D01*
X111107768Y-62867219D02*
X110869673Y-62867219D01*
X112774435Y-62867219D02*
X112679197Y-62819600D01*
X112679197Y-62819600D02*
X112631578Y-62771980D01*
X112631578Y-62771980D02*
X112583959Y-62676742D01*
X112583959Y-62676742D02*
X112583959Y-62391028D01*
X112583959Y-62391028D02*
X112631578Y-62295790D01*
X112631578Y-62295790D02*
X112679197Y-62248171D01*
X112679197Y-62248171D02*
X112774435Y-62200552D01*
X112774435Y-62200552D02*
X112917292Y-62200552D01*
X112917292Y-62200552D02*
X113012530Y-62248171D01*
X113012530Y-62248171D02*
X113060149Y-62295790D01*
X113060149Y-62295790D02*
X113107768Y-62391028D01*
X113107768Y-62391028D02*
X113107768Y-62676742D01*
X113107768Y-62676742D02*
X113060149Y-62771980D01*
X113060149Y-62771980D02*
X113012530Y-62819600D01*
X113012530Y-62819600D02*
X112917292Y-62867219D01*
X112917292Y-62867219D02*
X112774435Y-62867219D01*
X113536340Y-62200552D02*
X113536340Y-62867219D01*
X113536340Y-62295790D02*
X113583959Y-62248171D01*
X113583959Y-62248171D02*
X113679197Y-62200552D01*
X113679197Y-62200552D02*
X113822054Y-62200552D01*
X113822054Y-62200552D02*
X113917292Y-62248171D01*
X113917292Y-62248171D02*
X113964911Y-62343409D01*
X113964911Y-62343409D02*
X113964911Y-62867219D01*
X114441102Y-62486266D02*
X115203007Y-62486266D01*
X115822054Y-62867219D02*
X115726816Y-62819600D01*
X115726816Y-62819600D02*
X115679197Y-62771980D01*
X115679197Y-62771980D02*
X115631578Y-62676742D01*
X115631578Y-62676742D02*
X115631578Y-62391028D01*
X115631578Y-62391028D02*
X115679197Y-62295790D01*
X115679197Y-62295790D02*
X115726816Y-62248171D01*
X115726816Y-62248171D02*
X115822054Y-62200552D01*
X115822054Y-62200552D02*
X115964911Y-62200552D01*
X115964911Y-62200552D02*
X116060149Y-62248171D01*
X116060149Y-62248171D02*
X116107768Y-62295790D01*
X116107768Y-62295790D02*
X116155387Y-62391028D01*
X116155387Y-62391028D02*
X116155387Y-62676742D01*
X116155387Y-62676742D02*
X116107768Y-62771980D01*
X116107768Y-62771980D02*
X116060149Y-62819600D01*
X116060149Y-62819600D02*
X115964911Y-62867219D01*
X115964911Y-62867219D02*
X115822054Y-62867219D01*
X116441102Y-62200552D02*
X116822054Y-62200552D01*
X116583959Y-62867219D02*
X116583959Y-62010076D01*
X116583959Y-62010076D02*
X116631578Y-61914838D01*
X116631578Y-61914838D02*
X116726816Y-61867219D01*
X116726816Y-61867219D02*
X116822054Y-61867219D01*
X117012531Y-62200552D02*
X117393483Y-62200552D01*
X117155388Y-62867219D02*
X117155388Y-62010076D01*
X117155388Y-62010076D02*
X117203007Y-61914838D01*
X117203007Y-61914838D02*
X117298245Y-61867219D01*
X117298245Y-61867219D02*
X117393483Y-61867219D01*
D13*
X83875939Y-101887542D02*
X83754510Y-102858971D01*
X83754510Y-102858971D02*
X83797368Y-102973257D01*
X83797368Y-102973257D02*
X83847368Y-103030400D01*
X83847368Y-103030400D02*
X83954510Y-103087542D01*
X83954510Y-103087542D02*
X84183082Y-103087542D01*
X84183082Y-103087542D02*
X84304510Y-103030400D01*
X84304510Y-103030400D02*
X84368796Y-102973257D01*
X84368796Y-102973257D02*
X84440225Y-102858971D01*
X84440225Y-102858971D02*
X84561653Y-101887542D01*
X85083082Y-102287542D02*
X84983082Y-103087542D01*
X85068796Y-102401828D02*
X85133082Y-102344685D01*
X85133082Y-102344685D02*
X85254511Y-102287542D01*
X85254511Y-102287542D02*
X85425939Y-102287542D01*
X85425939Y-102287542D02*
X85533082Y-102344685D01*
X85533082Y-102344685D02*
X85575939Y-102458971D01*
X85575939Y-102458971D02*
X85497368Y-103087542D01*
X86068796Y-103087542D02*
X86168796Y-102287542D01*
X86218796Y-101887542D02*
X86154510Y-101944685D01*
X86154510Y-101944685D02*
X86204510Y-102001828D01*
X86204510Y-102001828D02*
X86268796Y-101944685D01*
X86268796Y-101944685D02*
X86218796Y-101887542D01*
X86218796Y-101887542D02*
X86204510Y-102001828D01*
X87411654Y-101944685D02*
X87304511Y-101887542D01*
X87304511Y-101887542D02*
X87133082Y-101887542D01*
X87133082Y-101887542D02*
X86954511Y-101944685D01*
X86954511Y-101944685D02*
X86825939Y-102058971D01*
X86825939Y-102058971D02*
X86754511Y-102173257D01*
X86754511Y-102173257D02*
X86668796Y-102401828D01*
X86668796Y-102401828D02*
X86647368Y-102573257D01*
X86647368Y-102573257D02*
X86675939Y-102801828D01*
X86675939Y-102801828D02*
X86718796Y-102916114D01*
X86718796Y-102916114D02*
X86818796Y-103030400D01*
X86818796Y-103030400D02*
X86983082Y-103087542D01*
X86983082Y-103087542D02*
X87097368Y-103087542D01*
X87097368Y-103087542D02*
X87275939Y-103030400D01*
X87275939Y-103030400D02*
X87340225Y-102973257D01*
X87340225Y-102973257D02*
X87390225Y-102573257D01*
X87390225Y-102573257D02*
X87161654Y-102573257D01*
X87918796Y-102458971D02*
X88318796Y-102458971D01*
X88411654Y-103087542D02*
X87840225Y-103087542D01*
X87840225Y-103087542D02*
X87990225Y-101887542D01*
X87990225Y-101887542D02*
X88561654Y-101887542D01*
D10*
X90902568Y-104364619D02*
X90902568Y-103697952D01*
X90902568Y-103888428D02*
X90950187Y-103793190D01*
X90950187Y-103793190D02*
X90997806Y-103745571D01*
X90997806Y-103745571D02*
X91093044Y-103697952D01*
X91093044Y-103697952D02*
X91188282Y-103697952D01*
X91902568Y-104317000D02*
X91807330Y-104364619D01*
X91807330Y-104364619D02*
X91616854Y-104364619D01*
X91616854Y-104364619D02*
X91521616Y-104317000D01*
X91521616Y-104317000D02*
X91473997Y-104221761D01*
X91473997Y-104221761D02*
X91473997Y-103840809D01*
X91473997Y-103840809D02*
X91521616Y-103745571D01*
X91521616Y-103745571D02*
X91616854Y-103697952D01*
X91616854Y-103697952D02*
X91807330Y-103697952D01*
X91807330Y-103697952D02*
X91902568Y-103745571D01*
X91902568Y-103745571D02*
X91950187Y-103840809D01*
X91950187Y-103840809D02*
X91950187Y-103936047D01*
X91950187Y-103936047D02*
X91473997Y-104031285D01*
X92331140Y-104317000D02*
X92426378Y-104364619D01*
X92426378Y-104364619D02*
X92616854Y-104364619D01*
X92616854Y-104364619D02*
X92712092Y-104317000D01*
X92712092Y-104317000D02*
X92759711Y-104221761D01*
X92759711Y-104221761D02*
X92759711Y-104174142D01*
X92759711Y-104174142D02*
X92712092Y-104078904D01*
X92712092Y-104078904D02*
X92616854Y-104031285D01*
X92616854Y-104031285D02*
X92473997Y-104031285D01*
X92473997Y-104031285D02*
X92378759Y-103983666D01*
X92378759Y-103983666D02*
X92331140Y-103888428D01*
X92331140Y-103888428D02*
X92331140Y-103840809D01*
X92331140Y-103840809D02*
X92378759Y-103745571D01*
X92378759Y-103745571D02*
X92473997Y-103697952D01*
X92473997Y-103697952D02*
X92616854Y-103697952D01*
X92616854Y-103697952D02*
X92712092Y-103745571D01*
X93188283Y-104364619D02*
X93188283Y-103697952D01*
X93188283Y-103364619D02*
X93140664Y-103412238D01*
X93140664Y-103412238D02*
X93188283Y-103459857D01*
X93188283Y-103459857D02*
X93235902Y-103412238D01*
X93235902Y-103412238D02*
X93188283Y-103364619D01*
X93188283Y-103364619D02*
X93188283Y-103459857D01*
X93616854Y-104317000D02*
X93712092Y-104364619D01*
X93712092Y-104364619D02*
X93902568Y-104364619D01*
X93902568Y-104364619D02*
X93997806Y-104317000D01*
X93997806Y-104317000D02*
X94045425Y-104221761D01*
X94045425Y-104221761D02*
X94045425Y-104174142D01*
X94045425Y-104174142D02*
X93997806Y-104078904D01*
X93997806Y-104078904D02*
X93902568Y-104031285D01*
X93902568Y-104031285D02*
X93759711Y-104031285D01*
X93759711Y-104031285D02*
X93664473Y-103983666D01*
X93664473Y-103983666D02*
X93616854Y-103888428D01*
X93616854Y-103888428D02*
X93616854Y-103840809D01*
X93616854Y-103840809D02*
X93664473Y-103745571D01*
X93664473Y-103745571D02*
X93759711Y-103697952D01*
X93759711Y-103697952D02*
X93902568Y-103697952D01*
X93902568Y-103697952D02*
X93997806Y-103745571D01*
X94331140Y-103697952D02*
X94712092Y-103697952D01*
X94473997Y-103364619D02*
X94473997Y-104221761D01*
X94473997Y-104221761D02*
X94521616Y-104317000D01*
X94521616Y-104317000D02*
X94616854Y-104364619D01*
X94616854Y-104364619D02*
X94712092Y-104364619D01*
X95188283Y-104364619D02*
X95093045Y-104317000D01*
X95093045Y-104317000D02*
X95045426Y-104269380D01*
X95045426Y-104269380D02*
X94997807Y-104174142D01*
X94997807Y-104174142D02*
X94997807Y-103888428D01*
X94997807Y-103888428D02*
X95045426Y-103793190D01*
X95045426Y-103793190D02*
X95093045Y-103745571D01*
X95093045Y-103745571D02*
X95188283Y-103697952D01*
X95188283Y-103697952D02*
X95331140Y-103697952D01*
X95331140Y-103697952D02*
X95426378Y-103745571D01*
X95426378Y-103745571D02*
X95473997Y-103793190D01*
X95473997Y-103793190D02*
X95521616Y-103888428D01*
X95521616Y-103888428D02*
X95521616Y-104174142D01*
X95521616Y-104174142D02*
X95473997Y-104269380D01*
X95473997Y-104269380D02*
X95426378Y-104317000D01*
X95426378Y-104317000D02*
X95331140Y-104364619D01*
X95331140Y-104364619D02*
X95188283Y-104364619D01*
X95950188Y-104364619D02*
X95950188Y-103697952D01*
X95950188Y-103888428D02*
X95997807Y-103793190D01*
X95997807Y-103793190D02*
X96045426Y-103745571D01*
X96045426Y-103745571D02*
X96140664Y-103697952D01*
X96140664Y-103697952D02*
X96235902Y-103697952D01*
D13*
X83804510Y-98208971D02*
X84204510Y-98208971D01*
X84297368Y-98837542D02*
X83725939Y-98837542D01*
X83725939Y-98837542D02*
X83875939Y-97637542D01*
X83875939Y-97637542D02*
X84447368Y-97637542D01*
X85383082Y-98837542D02*
X84811653Y-98837542D01*
X84811653Y-98837542D02*
X84961653Y-97637542D01*
X86483082Y-98723257D02*
X86418796Y-98780400D01*
X86418796Y-98780400D02*
X86240225Y-98837542D01*
X86240225Y-98837542D02*
X86125939Y-98837542D01*
X86125939Y-98837542D02*
X85961653Y-98780400D01*
X85961653Y-98780400D02*
X85861653Y-98666114D01*
X85861653Y-98666114D02*
X85818796Y-98551828D01*
X85818796Y-98551828D02*
X85790225Y-98323257D01*
X85790225Y-98323257D02*
X85811653Y-98151828D01*
X85811653Y-98151828D02*
X85897368Y-97923257D01*
X85897368Y-97923257D02*
X85968796Y-97808971D01*
X85968796Y-97808971D02*
X86097368Y-97694685D01*
X86097368Y-97694685D02*
X86275939Y-97637542D01*
X86275939Y-97637542D02*
X86390225Y-97637542D01*
X86390225Y-97637542D02*
X86554511Y-97694685D01*
X86554511Y-97694685D02*
X86604511Y-97751828D01*
X86983082Y-98837542D02*
X87133082Y-97637542D01*
X88240225Y-98837542D02*
X87911654Y-98266114D01*
X87554511Y-98837542D02*
X87704511Y-97637542D01*
X87704511Y-97637542D02*
X88161654Y-97637542D01*
X88161654Y-97637542D02*
X88268797Y-97694685D01*
X88268797Y-97694685D02*
X88318797Y-97751828D01*
X88318797Y-97751828D02*
X88361654Y-97866114D01*
X88361654Y-97866114D02*
X88340225Y-98037542D01*
X88340225Y-98037542D02*
X88268797Y-98151828D01*
X88268797Y-98151828D02*
X88204511Y-98208971D01*
X88204511Y-98208971D02*
X88083082Y-98266114D01*
X88083082Y-98266114D02*
X87625940Y-98266114D01*
X89454511Y-98723257D02*
X89390225Y-98780400D01*
X89390225Y-98780400D02*
X89211654Y-98837542D01*
X89211654Y-98837542D02*
X89097368Y-98837542D01*
X89097368Y-98837542D02*
X88933082Y-98780400D01*
X88933082Y-98780400D02*
X88833082Y-98666114D01*
X88833082Y-98666114D02*
X88790225Y-98551828D01*
X88790225Y-98551828D02*
X88761654Y-98323257D01*
X88761654Y-98323257D02*
X88783082Y-98151828D01*
X88783082Y-98151828D02*
X88868797Y-97923257D01*
X88868797Y-97923257D02*
X88940225Y-97808971D01*
X88940225Y-97808971D02*
X89068797Y-97694685D01*
X89068797Y-97694685D02*
X89247368Y-97637542D01*
X89247368Y-97637542D02*
X89361654Y-97637542D01*
X89361654Y-97637542D02*
X89525940Y-97694685D01*
X89525940Y-97694685D02*
X89575940Y-97751828D01*
D10*
X97104949Y-55328904D02*
X97581139Y-55328904D01*
X97009711Y-55614619D02*
X97343044Y-54614619D01*
X97343044Y-54614619D02*
X97676377Y-55614619D01*
X98438282Y-55567000D02*
X98343044Y-55614619D01*
X98343044Y-55614619D02*
X98152568Y-55614619D01*
X98152568Y-55614619D02*
X98057330Y-55567000D01*
X98057330Y-55567000D02*
X98009711Y-55519380D01*
X98009711Y-55519380D02*
X97962092Y-55424142D01*
X97962092Y-55424142D02*
X97962092Y-55138428D01*
X97962092Y-55138428D02*
X98009711Y-55043190D01*
X98009711Y-55043190D02*
X98057330Y-54995571D01*
X98057330Y-54995571D02*
X98152568Y-54947952D01*
X98152568Y-54947952D02*
X98343044Y-54947952D01*
X98343044Y-54947952D02*
X98438282Y-54995571D01*
X98723997Y-54947952D02*
X99104949Y-54947952D01*
X98866854Y-54614619D02*
X98866854Y-55471761D01*
X98866854Y-55471761D02*
X98914473Y-55567000D01*
X98914473Y-55567000D02*
X99009711Y-55614619D01*
X99009711Y-55614619D02*
X99104949Y-55614619D01*
X99866854Y-54947952D02*
X99866854Y-55614619D01*
X99438283Y-54947952D02*
X99438283Y-55471761D01*
X99438283Y-55471761D02*
X99485902Y-55567000D01*
X99485902Y-55567000D02*
X99581140Y-55614619D01*
X99581140Y-55614619D02*
X99723997Y-55614619D01*
X99723997Y-55614619D02*
X99819235Y-55567000D01*
X99819235Y-55567000D02*
X99866854Y-55519380D01*
X100771616Y-55614619D02*
X100771616Y-55090809D01*
X100771616Y-55090809D02*
X100723997Y-54995571D01*
X100723997Y-54995571D02*
X100628759Y-54947952D01*
X100628759Y-54947952D02*
X100438283Y-54947952D01*
X100438283Y-54947952D02*
X100343045Y-54995571D01*
X100771616Y-55567000D02*
X100676378Y-55614619D01*
X100676378Y-55614619D02*
X100438283Y-55614619D01*
X100438283Y-55614619D02*
X100343045Y-55567000D01*
X100343045Y-55567000D02*
X100295426Y-55471761D01*
X100295426Y-55471761D02*
X100295426Y-55376523D01*
X100295426Y-55376523D02*
X100343045Y-55281285D01*
X100343045Y-55281285D02*
X100438283Y-55233666D01*
X100438283Y-55233666D02*
X100676378Y-55233666D01*
X100676378Y-55233666D02*
X100771616Y-55186047D01*
X101104950Y-54947952D02*
X101485902Y-54947952D01*
X101247807Y-54614619D02*
X101247807Y-55471761D01*
X101247807Y-55471761D02*
X101295426Y-55567000D01*
X101295426Y-55567000D02*
X101390664Y-55614619D01*
X101390664Y-55614619D02*
X101485902Y-55614619D01*
X101962093Y-55614619D02*
X101866855Y-55567000D01*
X101866855Y-55567000D02*
X101819236Y-55519380D01*
X101819236Y-55519380D02*
X101771617Y-55424142D01*
X101771617Y-55424142D02*
X101771617Y-55138428D01*
X101771617Y-55138428D02*
X101819236Y-55043190D01*
X101819236Y-55043190D02*
X101866855Y-54995571D01*
X101866855Y-54995571D02*
X101962093Y-54947952D01*
X101962093Y-54947952D02*
X102104950Y-54947952D01*
X102104950Y-54947952D02*
X102200188Y-54995571D01*
X102200188Y-54995571D02*
X102247807Y-55043190D01*
X102247807Y-55043190D02*
X102295426Y-55138428D01*
X102295426Y-55138428D02*
X102295426Y-55424142D01*
X102295426Y-55424142D02*
X102247807Y-55519380D01*
X102247807Y-55519380D02*
X102200188Y-55567000D01*
X102200188Y-55567000D02*
X102104950Y-55614619D01*
X102104950Y-55614619D02*
X101962093Y-55614619D01*
X102723998Y-55614619D02*
X102723998Y-54947952D01*
X102723998Y-55138428D02*
X102771617Y-55043190D01*
X102771617Y-55043190D02*
X102819236Y-54995571D01*
X102819236Y-54995571D02*
X102914474Y-54947952D01*
X102914474Y-54947952D02*
X103009712Y-54947952D01*
D14*
X107083333Y-101454819D02*
X106750000Y-100978628D01*
X106511905Y-101454819D02*
X106511905Y-100454819D01*
X106511905Y-100454819D02*
X106892857Y-100454819D01*
X106892857Y-100454819D02*
X106988095Y-100502438D01*
X106988095Y-100502438D02*
X107035714Y-100550057D01*
X107035714Y-100550057D02*
X107083333Y-100645295D01*
X107083333Y-100645295D02*
X107083333Y-100788152D01*
X107083333Y-100788152D02*
X107035714Y-100883390D01*
X107035714Y-100883390D02*
X106988095Y-100931009D01*
X106988095Y-100931009D02*
X106892857Y-100978628D01*
X106892857Y-100978628D02*
X106511905Y-100978628D01*
X107559524Y-101454819D02*
X107750000Y-101454819D01*
X107750000Y-101454819D02*
X107845238Y-101407200D01*
X107845238Y-101407200D02*
X107892857Y-101359580D01*
X107892857Y-101359580D02*
X107988095Y-101216723D01*
X107988095Y-101216723D02*
X108035714Y-101026247D01*
X108035714Y-101026247D02*
X108035714Y-100645295D01*
X108035714Y-100645295D02*
X107988095Y-100550057D01*
X107988095Y-100550057D02*
X107940476Y-100502438D01*
X107940476Y-100502438D02*
X107845238Y-100454819D01*
X107845238Y-100454819D02*
X107654762Y-100454819D01*
X107654762Y-100454819D02*
X107559524Y-100502438D01*
X107559524Y-100502438D02*
X107511905Y-100550057D01*
X107511905Y-100550057D02*
X107464286Y-100645295D01*
X107464286Y-100645295D02*
X107464286Y-100883390D01*
X107464286Y-100883390D02*
X107511905Y-100978628D01*
X107511905Y-100978628D02*
X107559524Y-101026247D01*
X107559524Y-101026247D02*
X107654762Y-101073866D01*
X107654762Y-101073866D02*
X107845238Y-101073866D01*
X107845238Y-101073866D02*
X107940476Y-101026247D01*
X107940476Y-101026247D02*
X107988095Y-100978628D01*
X107988095Y-100978628D02*
X108035714Y-100883390D01*
X102083333Y-63954819D02*
X101750000Y-63478628D01*
X101511905Y-63954819D02*
X101511905Y-62954819D01*
X101511905Y-62954819D02*
X101892857Y-62954819D01*
X101892857Y-62954819D02*
X101988095Y-63002438D01*
X101988095Y-63002438D02*
X102035714Y-63050057D01*
X102035714Y-63050057D02*
X102083333Y-63145295D01*
X102083333Y-63145295D02*
X102083333Y-63288152D01*
X102083333Y-63288152D02*
X102035714Y-63383390D01*
X102035714Y-63383390D02*
X101988095Y-63431009D01*
X101988095Y-63431009D02*
X101892857Y-63478628D01*
X101892857Y-63478628D02*
X101511905Y-63478628D01*
X102940476Y-63288152D02*
X102940476Y-63954819D01*
X102702381Y-62907200D02*
X102464286Y-63621485D01*
X102464286Y-63621485D02*
X103083333Y-63621485D01*
X97083333Y-93454819D02*
X96750000Y-92978628D01*
X96511905Y-93454819D02*
X96511905Y-92454819D01*
X96511905Y-92454819D02*
X96892857Y-92454819D01*
X96892857Y-92454819D02*
X96988095Y-92502438D01*
X96988095Y-92502438D02*
X97035714Y-92550057D01*
X97035714Y-92550057D02*
X97083333Y-92645295D01*
X97083333Y-92645295D02*
X97083333Y-92788152D01*
X97083333Y-92788152D02*
X97035714Y-92883390D01*
X97035714Y-92883390D02*
X96988095Y-92931009D01*
X96988095Y-92931009D02*
X96892857Y-92978628D01*
X96892857Y-92978628D02*
X96511905Y-92978628D01*
X97988095Y-92454819D02*
X97511905Y-92454819D01*
X97511905Y-92454819D02*
X97464286Y-92931009D01*
X97464286Y-92931009D02*
X97511905Y-92883390D01*
X97511905Y-92883390D02*
X97607143Y-92835771D01*
X97607143Y-92835771D02*
X97845238Y-92835771D01*
X97845238Y-92835771D02*
X97940476Y-92883390D01*
X97940476Y-92883390D02*
X97988095Y-92931009D01*
X97988095Y-92931009D02*
X98035714Y-93026247D01*
X98035714Y-93026247D02*
X98035714Y-93264342D01*
X98035714Y-93264342D02*
X97988095Y-93359580D01*
X97988095Y-93359580D02*
X97940476Y-93407200D01*
X97940476Y-93407200D02*
X97845238Y-93454819D01*
X97845238Y-93454819D02*
X97607143Y-93454819D01*
X97607143Y-93454819D02*
X97511905Y-93407200D01*
X97511905Y-93407200D02*
X97464286Y-93359580D01*
X102083333Y-79179580D02*
X102035714Y-79227200D01*
X102035714Y-79227200D02*
X101892857Y-79274819D01*
X101892857Y-79274819D02*
X101797619Y-79274819D01*
X101797619Y-79274819D02*
X101654762Y-79227200D01*
X101654762Y-79227200D02*
X101559524Y-79131961D01*
X101559524Y-79131961D02*
X101511905Y-79036723D01*
X101511905Y-79036723D02*
X101464286Y-78846247D01*
X101464286Y-78846247D02*
X101464286Y-78703390D01*
X101464286Y-78703390D02*
X101511905Y-78512914D01*
X101511905Y-78512914D02*
X101559524Y-78417676D01*
X101559524Y-78417676D02*
X101654762Y-78322438D01*
X101654762Y-78322438D02*
X101797619Y-78274819D01*
X101797619Y-78274819D02*
X101892857Y-78274819D01*
X101892857Y-78274819D02*
X102035714Y-78322438D01*
X102035714Y-78322438D02*
X102083333Y-78370057D01*
X102416667Y-78274819D02*
X103035714Y-78274819D01*
X103035714Y-78274819D02*
X102702381Y-78655771D01*
X102702381Y-78655771D02*
X102845238Y-78655771D01*
X102845238Y-78655771D02*
X102940476Y-78703390D01*
X102940476Y-78703390D02*
X102988095Y-78751009D01*
X102988095Y-78751009D02*
X103035714Y-78846247D01*
X103035714Y-78846247D02*
X103035714Y-79084342D01*
X103035714Y-79084342D02*
X102988095Y-79179580D01*
X102988095Y-79179580D02*
X102940476Y-79227200D01*
X102940476Y-79227200D02*
X102845238Y-79274819D01*
X102845238Y-79274819D02*
X102559524Y-79274819D01*
X102559524Y-79274819D02*
X102464286Y-79227200D01*
X102464286Y-79227200D02*
X102416667Y-79179580D01*
X104704819Y-88511904D02*
X104704819Y-87940476D01*
X105704819Y-88226190D02*
X104704819Y-88226190D01*
X105704819Y-87035714D02*
X105228628Y-87369047D01*
X105704819Y-87607142D02*
X104704819Y-87607142D01*
X104704819Y-87607142D02*
X104704819Y-87226190D01*
X104704819Y-87226190D02*
X104752438Y-87130952D01*
X104752438Y-87130952D02*
X104800057Y-87083333D01*
X104800057Y-87083333D02*
X104895295Y-87035714D01*
X104895295Y-87035714D02*
X105038152Y-87035714D01*
X105038152Y-87035714D02*
X105133390Y-87083333D01*
X105133390Y-87083333D02*
X105181009Y-87130952D01*
X105181009Y-87130952D02*
X105228628Y-87226190D01*
X105228628Y-87226190D02*
X105228628Y-87607142D01*
X104704819Y-86702380D02*
X104704819Y-86083333D01*
X104704819Y-86083333D02*
X105085771Y-86416666D01*
X105085771Y-86416666D02*
X105085771Y-86273809D01*
X105085771Y-86273809D02*
X105133390Y-86178571D01*
X105133390Y-86178571D02*
X105181009Y-86130952D01*
X105181009Y-86130952D02*
X105276247Y-86083333D01*
X105276247Y-86083333D02*
X105514342Y-86083333D01*
X105514342Y-86083333D02*
X105609580Y-86130952D01*
X105609580Y-86130952D02*
X105657200Y-86178571D01*
X105657200Y-86178571D02*
X105704819Y-86273809D01*
X105704819Y-86273809D02*
X105704819Y-86559523D01*
X105704819Y-86559523D02*
X105657200Y-86654761D01*
X105657200Y-86654761D02*
X105609580Y-86702380D01*
X114833333Y-76109580D02*
X114785714Y-76157200D01*
X114785714Y-76157200D02*
X114642857Y-76204819D01*
X114642857Y-76204819D02*
X114547619Y-76204819D01*
X114547619Y-76204819D02*
X114404762Y-76157200D01*
X114404762Y-76157200D02*
X114309524Y-76061961D01*
X114309524Y-76061961D02*
X114261905Y-75966723D01*
X114261905Y-75966723D02*
X114214286Y-75776247D01*
X114214286Y-75776247D02*
X114214286Y-75633390D01*
X114214286Y-75633390D02*
X114261905Y-75442914D01*
X114261905Y-75442914D02*
X114309524Y-75347676D01*
X114309524Y-75347676D02*
X114404762Y-75252438D01*
X114404762Y-75252438D02*
X114547619Y-75204819D01*
X114547619Y-75204819D02*
X114642857Y-75204819D01*
X114642857Y-75204819D02*
X114785714Y-75252438D01*
X114785714Y-75252438D02*
X114833333Y-75300057D01*
X115166667Y-75204819D02*
X115833333Y-75204819D01*
X115833333Y-75204819D02*
X115404762Y-76204819D01*
X116333333Y-69204819D02*
X116000000Y-68728628D01*
X115761905Y-69204819D02*
X115761905Y-68204819D01*
X115761905Y-68204819D02*
X116142857Y-68204819D01*
X116142857Y-68204819D02*
X116238095Y-68252438D01*
X116238095Y-68252438D02*
X116285714Y-68300057D01*
X116285714Y-68300057D02*
X116333333Y-68395295D01*
X116333333Y-68395295D02*
X116333333Y-68538152D01*
X116333333Y-68538152D02*
X116285714Y-68633390D01*
X116285714Y-68633390D02*
X116238095Y-68681009D01*
X116238095Y-68681009D02*
X116142857Y-68728628D01*
X116142857Y-68728628D02*
X115761905Y-68728628D01*
X116904762Y-68633390D02*
X116809524Y-68585771D01*
X116809524Y-68585771D02*
X116761905Y-68538152D01*
X116761905Y-68538152D02*
X116714286Y-68442914D01*
X116714286Y-68442914D02*
X116714286Y-68395295D01*
X116714286Y-68395295D02*
X116761905Y-68300057D01*
X116761905Y-68300057D02*
X116809524Y-68252438D01*
X116809524Y-68252438D02*
X116904762Y-68204819D01*
X116904762Y-68204819D02*
X117095238Y-68204819D01*
X117095238Y-68204819D02*
X117190476Y-68252438D01*
X117190476Y-68252438D02*
X117238095Y-68300057D01*
X117238095Y-68300057D02*
X117285714Y-68395295D01*
X117285714Y-68395295D02*
X117285714Y-68442914D01*
X117285714Y-68442914D02*
X117238095Y-68538152D01*
X117238095Y-68538152D02*
X117190476Y-68585771D01*
X117190476Y-68585771D02*
X117095238Y-68633390D01*
X117095238Y-68633390D02*
X116904762Y-68633390D01*
X116904762Y-68633390D02*
X116809524Y-68681009D01*
X116809524Y-68681009D02*
X116761905Y-68728628D01*
X116761905Y-68728628D02*
X116714286Y-68823866D01*
X116714286Y-68823866D02*
X116714286Y-69014342D01*
X116714286Y-69014342D02*
X116761905Y-69109580D01*
X116761905Y-69109580D02*
X116809524Y-69157200D01*
X116809524Y-69157200D02*
X116904762Y-69204819D01*
X116904762Y-69204819D02*
X117095238Y-69204819D01*
X117095238Y-69204819D02*
X117190476Y-69157200D01*
X117190476Y-69157200D02*
X117238095Y-69109580D01*
X117238095Y-69109580D02*
X117285714Y-69014342D01*
X117285714Y-69014342D02*
X117285714Y-68823866D01*
X117285714Y-68823866D02*
X117238095Y-68728628D01*
X117238095Y-68728628D02*
X117190476Y-68681009D01*
X117190476Y-68681009D02*
X117095238Y-68633390D01*
X96416666Y-62204819D02*
X96416666Y-62919104D01*
X96416666Y-62919104D02*
X96369047Y-63061961D01*
X96369047Y-63061961D02*
X96273809Y-63157200D01*
X96273809Y-63157200D02*
X96130952Y-63204819D01*
X96130952Y-63204819D02*
X96035714Y-63204819D01*
X96892857Y-63204819D02*
X96892857Y-62204819D01*
X96892857Y-62204819D02*
X97273809Y-62204819D01*
X97273809Y-62204819D02*
X97369047Y-62252438D01*
X97369047Y-62252438D02*
X97416666Y-62300057D01*
X97416666Y-62300057D02*
X97464285Y-62395295D01*
X97464285Y-62395295D02*
X97464285Y-62538152D01*
X97464285Y-62538152D02*
X97416666Y-62633390D01*
X97416666Y-62633390D02*
X97369047Y-62681009D01*
X97369047Y-62681009D02*
X97273809Y-62728628D01*
X97273809Y-62728628D02*
X96892857Y-62728628D01*
X97797619Y-62204819D02*
X98416666Y-62204819D01*
X98416666Y-62204819D02*
X98083333Y-62585771D01*
X98083333Y-62585771D02*
X98226190Y-62585771D01*
X98226190Y-62585771D02*
X98321428Y-62633390D01*
X98321428Y-62633390D02*
X98369047Y-62681009D01*
X98369047Y-62681009D02*
X98416666Y-62776247D01*
X98416666Y-62776247D02*
X98416666Y-63014342D01*
X98416666Y-63014342D02*
X98369047Y-63109580D01*
X98369047Y-63109580D02*
X98321428Y-63157200D01*
X98321428Y-63157200D02*
X98226190Y-63204819D01*
X98226190Y-63204819D02*
X97940476Y-63204819D01*
X97940476Y-63204819D02*
X97845238Y-63157200D01*
X97845238Y-63157200D02*
X97797619Y-63109580D01*
X97988095Y-80554819D02*
X97988095Y-81364342D01*
X97988095Y-81364342D02*
X98035714Y-81459580D01*
X98035714Y-81459580D02*
X98083333Y-81507200D01*
X98083333Y-81507200D02*
X98178571Y-81554819D01*
X98178571Y-81554819D02*
X98369047Y-81554819D01*
X98369047Y-81554819D02*
X98464285Y-81507200D01*
X98464285Y-81507200D02*
X98511904Y-81459580D01*
X98511904Y-81459580D02*
X98559523Y-81364342D01*
X98559523Y-81364342D02*
X98559523Y-80554819D01*
X99559523Y-81554819D02*
X98988095Y-81554819D01*
X99273809Y-81554819D02*
X99273809Y-80554819D01*
X99273809Y-80554819D02*
X99178571Y-80697676D01*
X99178571Y-80697676D02*
X99083333Y-80792914D01*
X99083333Y-80792914D02*
X98988095Y-80840533D01*
X116333333Y-64704819D02*
X116000000Y-64228628D01*
X115761905Y-64704819D02*
X115761905Y-63704819D01*
X115761905Y-63704819D02*
X116142857Y-63704819D01*
X116142857Y-63704819D02*
X116238095Y-63752438D01*
X116238095Y-63752438D02*
X116285714Y-63800057D01*
X116285714Y-63800057D02*
X116333333Y-63895295D01*
X116333333Y-63895295D02*
X116333333Y-64038152D01*
X116333333Y-64038152D02*
X116285714Y-64133390D01*
X116285714Y-64133390D02*
X116238095Y-64181009D01*
X116238095Y-64181009D02*
X116142857Y-64228628D01*
X116142857Y-64228628D02*
X115761905Y-64228628D01*
X116666667Y-63704819D02*
X117333333Y-63704819D01*
X117333333Y-63704819D02*
X116904762Y-64704819D01*
X94083333Y-63359580D02*
X94035714Y-63407200D01*
X94035714Y-63407200D02*
X93892857Y-63454819D01*
X93892857Y-63454819D02*
X93797619Y-63454819D01*
X93797619Y-63454819D02*
X93654762Y-63407200D01*
X93654762Y-63407200D02*
X93559524Y-63311961D01*
X93559524Y-63311961D02*
X93511905Y-63216723D01*
X93511905Y-63216723D02*
X93464286Y-63026247D01*
X93464286Y-63026247D02*
X93464286Y-62883390D01*
X93464286Y-62883390D02*
X93511905Y-62692914D01*
X93511905Y-62692914D02*
X93559524Y-62597676D01*
X93559524Y-62597676D02*
X93654762Y-62502438D01*
X93654762Y-62502438D02*
X93797619Y-62454819D01*
X93797619Y-62454819D02*
X93892857Y-62454819D01*
X93892857Y-62454819D02*
X94035714Y-62502438D01*
X94035714Y-62502438D02*
X94083333Y-62550057D01*
X95035714Y-63454819D02*
X94464286Y-63454819D01*
X94750000Y-63454819D02*
X94750000Y-62454819D01*
X94750000Y-62454819D02*
X94654762Y-62597676D01*
X94654762Y-62597676D02*
X94559524Y-62692914D01*
X94559524Y-62692914D02*
X94464286Y-62740533D01*
X95333333Y-78304819D02*
X95000000Y-77828628D01*
X94761905Y-78304819D02*
X94761905Y-77304819D01*
X94761905Y-77304819D02*
X95142857Y-77304819D01*
X95142857Y-77304819D02*
X95238095Y-77352438D01*
X95238095Y-77352438D02*
X95285714Y-77400057D01*
X95285714Y-77400057D02*
X95333333Y-77495295D01*
X95333333Y-77495295D02*
X95333333Y-77638152D01*
X95333333Y-77638152D02*
X95285714Y-77733390D01*
X95285714Y-77733390D02*
X95238095Y-77781009D01*
X95238095Y-77781009D02*
X95142857Y-77828628D01*
X95142857Y-77828628D02*
X94761905Y-77828628D01*
X96190476Y-77304819D02*
X96000000Y-77304819D01*
X96000000Y-77304819D02*
X95904762Y-77352438D01*
X95904762Y-77352438D02*
X95857143Y-77400057D01*
X95857143Y-77400057D02*
X95761905Y-77542914D01*
X95761905Y-77542914D02*
X95714286Y-77733390D01*
X95714286Y-77733390D02*
X95714286Y-78114342D01*
X95714286Y-78114342D02*
X95761905Y-78209580D01*
X95761905Y-78209580D02*
X95809524Y-78257200D01*
X95809524Y-78257200D02*
X95904762Y-78304819D01*
X95904762Y-78304819D02*
X96095238Y-78304819D01*
X96095238Y-78304819D02*
X96190476Y-78257200D01*
X96190476Y-78257200D02*
X96238095Y-78209580D01*
X96238095Y-78209580D02*
X96285714Y-78114342D01*
X96285714Y-78114342D02*
X96285714Y-77876247D01*
X96285714Y-77876247D02*
X96238095Y-77781009D01*
X96238095Y-77781009D02*
X96190476Y-77733390D01*
X96190476Y-77733390D02*
X96095238Y-77685771D01*
X96095238Y-77685771D02*
X95904762Y-77685771D01*
X95904762Y-77685771D02*
X95809524Y-77733390D01*
X95809524Y-77733390D02*
X95761905Y-77781009D01*
X95761905Y-77781009D02*
X95714286Y-77876247D01*
X102083333Y-73454819D02*
X101750000Y-72978628D01*
X101511905Y-73454819D02*
X101511905Y-72454819D01*
X101511905Y-72454819D02*
X101892857Y-72454819D01*
X101892857Y-72454819D02*
X101988095Y-72502438D01*
X101988095Y-72502438D02*
X102035714Y-72550057D01*
X102035714Y-72550057D02*
X102083333Y-72645295D01*
X102083333Y-72645295D02*
X102083333Y-72788152D01*
X102083333Y-72788152D02*
X102035714Y-72883390D01*
X102035714Y-72883390D02*
X101988095Y-72931009D01*
X101988095Y-72931009D02*
X101892857Y-72978628D01*
X101892857Y-72978628D02*
X101511905Y-72978628D01*
X102416667Y-72454819D02*
X103035714Y-72454819D01*
X103035714Y-72454819D02*
X102702381Y-72835771D01*
X102702381Y-72835771D02*
X102845238Y-72835771D01*
X102845238Y-72835771D02*
X102940476Y-72883390D01*
X102940476Y-72883390D02*
X102988095Y-72931009D01*
X102988095Y-72931009D02*
X103035714Y-73026247D01*
X103035714Y-73026247D02*
X103035714Y-73264342D01*
X103035714Y-73264342D02*
X102988095Y-73359580D01*
X102988095Y-73359580D02*
X102940476Y-73407200D01*
X102940476Y-73407200D02*
X102845238Y-73454819D01*
X102845238Y-73454819D02*
X102559524Y-73454819D01*
X102559524Y-73454819D02*
X102464286Y-73407200D01*
X102464286Y-73407200D02*
X102416667Y-73359580D01*
X82954819Y-80333333D02*
X83669104Y-80333333D01*
X83669104Y-80333333D02*
X83811961Y-80380952D01*
X83811961Y-80380952D02*
X83907200Y-80476190D01*
X83907200Y-80476190D02*
X83954819Y-80619047D01*
X83954819Y-80619047D02*
X83954819Y-80714285D01*
X83954819Y-79857142D02*
X82954819Y-79857142D01*
X82954819Y-79857142D02*
X82954819Y-79476190D01*
X82954819Y-79476190D02*
X83002438Y-79380952D01*
X83002438Y-79380952D02*
X83050057Y-79333333D01*
X83050057Y-79333333D02*
X83145295Y-79285714D01*
X83145295Y-79285714D02*
X83288152Y-79285714D01*
X83288152Y-79285714D02*
X83383390Y-79333333D01*
X83383390Y-79333333D02*
X83431009Y-79380952D01*
X83431009Y-79380952D02*
X83478628Y-79476190D01*
X83478628Y-79476190D02*
X83478628Y-79857142D01*
X83050057Y-78904761D02*
X83002438Y-78857142D01*
X83002438Y-78857142D02*
X82954819Y-78761904D01*
X82954819Y-78761904D02*
X82954819Y-78523809D01*
X82954819Y-78523809D02*
X83002438Y-78428571D01*
X83002438Y-78428571D02*
X83050057Y-78380952D01*
X83050057Y-78380952D02*
X83145295Y-78333333D01*
X83145295Y-78333333D02*
X83240533Y-78333333D01*
X83240533Y-78333333D02*
X83383390Y-78380952D01*
X83383390Y-78380952D02*
X83954819Y-78952380D01*
X83954819Y-78952380D02*
X83954819Y-78333333D01*
X99583333Y-63859580D02*
X99535714Y-63907200D01*
X99535714Y-63907200D02*
X99392857Y-63954819D01*
X99392857Y-63954819D02*
X99297619Y-63954819D01*
X99297619Y-63954819D02*
X99154762Y-63907200D01*
X99154762Y-63907200D02*
X99059524Y-63811961D01*
X99059524Y-63811961D02*
X99011905Y-63716723D01*
X99011905Y-63716723D02*
X98964286Y-63526247D01*
X98964286Y-63526247D02*
X98964286Y-63383390D01*
X98964286Y-63383390D02*
X99011905Y-63192914D01*
X99011905Y-63192914D02*
X99059524Y-63097676D01*
X99059524Y-63097676D02*
X99154762Y-63002438D01*
X99154762Y-63002438D02*
X99297619Y-62954819D01*
X99297619Y-62954819D02*
X99392857Y-62954819D01*
X99392857Y-62954819D02*
X99535714Y-63002438D01*
X99535714Y-63002438D02*
X99583333Y-63050057D01*
X100154762Y-63383390D02*
X100059524Y-63335771D01*
X100059524Y-63335771D02*
X100011905Y-63288152D01*
X100011905Y-63288152D02*
X99964286Y-63192914D01*
X99964286Y-63192914D02*
X99964286Y-63145295D01*
X99964286Y-63145295D02*
X100011905Y-63050057D01*
X100011905Y-63050057D02*
X100059524Y-63002438D01*
X100059524Y-63002438D02*
X100154762Y-62954819D01*
X100154762Y-62954819D02*
X100345238Y-62954819D01*
X100345238Y-62954819D02*
X100440476Y-63002438D01*
X100440476Y-63002438D02*
X100488095Y-63050057D01*
X100488095Y-63050057D02*
X100535714Y-63145295D01*
X100535714Y-63145295D02*
X100535714Y-63192914D01*
X100535714Y-63192914D02*
X100488095Y-63288152D01*
X100488095Y-63288152D02*
X100440476Y-63335771D01*
X100440476Y-63335771D02*
X100345238Y-63383390D01*
X100345238Y-63383390D02*
X100154762Y-63383390D01*
X100154762Y-63383390D02*
X100059524Y-63431009D01*
X100059524Y-63431009D02*
X100011905Y-63478628D01*
X100011905Y-63478628D02*
X99964286Y-63573866D01*
X99964286Y-63573866D02*
X99964286Y-63764342D01*
X99964286Y-63764342D02*
X100011905Y-63859580D01*
X100011905Y-63859580D02*
X100059524Y-63907200D01*
X100059524Y-63907200D02*
X100154762Y-63954819D01*
X100154762Y-63954819D02*
X100345238Y-63954819D01*
X100345238Y-63954819D02*
X100440476Y-63907200D01*
X100440476Y-63907200D02*
X100488095Y-63859580D01*
X100488095Y-63859580D02*
X100535714Y-63764342D01*
X100535714Y-63764342D02*
X100535714Y-63573866D01*
X100535714Y-63573866D02*
X100488095Y-63478628D01*
X100488095Y-63478628D02*
X100440476Y-63431009D01*
X100440476Y-63431009D02*
X100345238Y-63383390D01*
X94083333Y-73609580D02*
X94035714Y-73657200D01*
X94035714Y-73657200D02*
X93892857Y-73704819D01*
X93892857Y-73704819D02*
X93797619Y-73704819D01*
X93797619Y-73704819D02*
X93654762Y-73657200D01*
X93654762Y-73657200D02*
X93559524Y-73561961D01*
X93559524Y-73561961D02*
X93511905Y-73466723D01*
X93511905Y-73466723D02*
X93464286Y-73276247D01*
X93464286Y-73276247D02*
X93464286Y-73133390D01*
X93464286Y-73133390D02*
X93511905Y-72942914D01*
X93511905Y-72942914D02*
X93559524Y-72847676D01*
X93559524Y-72847676D02*
X93654762Y-72752438D01*
X93654762Y-72752438D02*
X93797619Y-72704819D01*
X93797619Y-72704819D02*
X93892857Y-72704819D01*
X93892857Y-72704819D02*
X94035714Y-72752438D01*
X94035714Y-72752438D02*
X94083333Y-72800057D01*
X94464286Y-72800057D02*
X94511905Y-72752438D01*
X94511905Y-72752438D02*
X94607143Y-72704819D01*
X94607143Y-72704819D02*
X94845238Y-72704819D01*
X94845238Y-72704819D02*
X94940476Y-72752438D01*
X94940476Y-72752438D02*
X94988095Y-72800057D01*
X94988095Y-72800057D02*
X95035714Y-72895295D01*
X95035714Y-72895295D02*
X95035714Y-72990533D01*
X95035714Y-72990533D02*
X94988095Y-73133390D01*
X94988095Y-73133390D02*
X94416667Y-73704819D01*
X94416667Y-73704819D02*
X95035714Y-73704819D01*
X113488095Y-71204819D02*
X113488095Y-72014342D01*
X113488095Y-72014342D02*
X113535714Y-72109580D01*
X113535714Y-72109580D02*
X113583333Y-72157200D01*
X113583333Y-72157200D02*
X113678571Y-72204819D01*
X113678571Y-72204819D02*
X113869047Y-72204819D01*
X113869047Y-72204819D02*
X113964285Y-72157200D01*
X113964285Y-72157200D02*
X114011904Y-72109580D01*
X114011904Y-72109580D02*
X114059523Y-72014342D01*
X114059523Y-72014342D02*
X114059523Y-71204819D01*
X114488095Y-71300057D02*
X114535714Y-71252438D01*
X114535714Y-71252438D02*
X114630952Y-71204819D01*
X114630952Y-71204819D02*
X114869047Y-71204819D01*
X114869047Y-71204819D02*
X114964285Y-71252438D01*
X114964285Y-71252438D02*
X115011904Y-71300057D01*
X115011904Y-71300057D02*
X115059523Y-71395295D01*
X115059523Y-71395295D02*
X115059523Y-71490533D01*
X115059523Y-71490533D02*
X115011904Y-71633390D01*
X115011904Y-71633390D02*
X114440476Y-72204819D01*
X114440476Y-72204819D02*
X115059523Y-72204819D01*
X93416666Y-88954819D02*
X93416666Y-89669104D01*
X93416666Y-89669104D02*
X93369047Y-89811961D01*
X93369047Y-89811961D02*
X93273809Y-89907200D01*
X93273809Y-89907200D02*
X93130952Y-89954819D01*
X93130952Y-89954819D02*
X93035714Y-89954819D01*
X93892857Y-89954819D02*
X93892857Y-88954819D01*
X93892857Y-88954819D02*
X94273809Y-88954819D01*
X94273809Y-88954819D02*
X94369047Y-89002438D01*
X94369047Y-89002438D02*
X94416666Y-89050057D01*
X94416666Y-89050057D02*
X94464285Y-89145295D01*
X94464285Y-89145295D02*
X94464285Y-89288152D01*
X94464285Y-89288152D02*
X94416666Y-89383390D01*
X94416666Y-89383390D02*
X94369047Y-89431009D01*
X94369047Y-89431009D02*
X94273809Y-89478628D01*
X94273809Y-89478628D02*
X93892857Y-89478628D01*
X95416666Y-89954819D02*
X94845238Y-89954819D01*
X95130952Y-89954819D02*
X95130952Y-88954819D01*
X95130952Y-88954819D02*
X95035714Y-89097676D01*
X95035714Y-89097676D02*
X94940476Y-89192914D01*
X94940476Y-89192914D02*
X94845238Y-89240533D01*
X97833333Y-70704819D02*
X97500000Y-70228628D01*
X97261905Y-70704819D02*
X97261905Y-69704819D01*
X97261905Y-69704819D02*
X97642857Y-69704819D01*
X97642857Y-69704819D02*
X97738095Y-69752438D01*
X97738095Y-69752438D02*
X97785714Y-69800057D01*
X97785714Y-69800057D02*
X97833333Y-69895295D01*
X97833333Y-69895295D02*
X97833333Y-70038152D01*
X97833333Y-70038152D02*
X97785714Y-70133390D01*
X97785714Y-70133390D02*
X97738095Y-70181009D01*
X97738095Y-70181009D02*
X97642857Y-70228628D01*
X97642857Y-70228628D02*
X97261905Y-70228628D01*
X98214286Y-69800057D02*
X98261905Y-69752438D01*
X98261905Y-69752438D02*
X98357143Y-69704819D01*
X98357143Y-69704819D02*
X98595238Y-69704819D01*
X98595238Y-69704819D02*
X98690476Y-69752438D01*
X98690476Y-69752438D02*
X98738095Y-69800057D01*
X98738095Y-69800057D02*
X98785714Y-69895295D01*
X98785714Y-69895295D02*
X98785714Y-69990533D01*
X98785714Y-69990533D02*
X98738095Y-70133390D01*
X98738095Y-70133390D02*
X98166667Y-70704819D01*
X98166667Y-70704819D02*
X98785714Y-70704819D01*
X76166666Y-62454819D02*
X76166666Y-63169104D01*
X76166666Y-63169104D02*
X76119047Y-63311961D01*
X76119047Y-63311961D02*
X76023809Y-63407200D01*
X76023809Y-63407200D02*
X75880952Y-63454819D01*
X75880952Y-63454819D02*
X75785714Y-63454819D01*
X77166666Y-63454819D02*
X76595238Y-63454819D01*
X76880952Y-63454819D02*
X76880952Y-62454819D01*
X76880952Y-62454819D02*
X76785714Y-62597676D01*
X76785714Y-62597676D02*
X76690476Y-62692914D01*
X76690476Y-62692914D02*
X76595238Y-62740533D01*
X104704819Y-83011904D02*
X104704819Y-82440476D01*
X105704819Y-82726190D02*
X104704819Y-82726190D01*
X105704819Y-81535714D02*
X105228628Y-81869047D01*
X105704819Y-82107142D02*
X104704819Y-82107142D01*
X104704819Y-82107142D02*
X104704819Y-81726190D01*
X104704819Y-81726190D02*
X104752438Y-81630952D01*
X104752438Y-81630952D02*
X104800057Y-81583333D01*
X104800057Y-81583333D02*
X104895295Y-81535714D01*
X104895295Y-81535714D02*
X105038152Y-81535714D01*
X105038152Y-81535714D02*
X105133390Y-81583333D01*
X105133390Y-81583333D02*
X105181009Y-81630952D01*
X105181009Y-81630952D02*
X105228628Y-81726190D01*
X105228628Y-81726190D02*
X105228628Y-82107142D01*
X104800057Y-81154761D02*
X104752438Y-81107142D01*
X104752438Y-81107142D02*
X104704819Y-81011904D01*
X104704819Y-81011904D02*
X104704819Y-80773809D01*
X104704819Y-80773809D02*
X104752438Y-80678571D01*
X104752438Y-80678571D02*
X104800057Y-80630952D01*
X104800057Y-80630952D02*
X104895295Y-80583333D01*
X104895295Y-80583333D02*
X104990533Y-80583333D01*
X104990533Y-80583333D02*
X105133390Y-80630952D01*
X105133390Y-80630952D02*
X105704819Y-81202380D01*
X105704819Y-81202380D02*
X105704819Y-80583333D01*
X80738095Y-84454819D02*
X81309523Y-84454819D01*
X81023809Y-85454819D02*
X81023809Y-84454819D01*
X82214285Y-85454819D02*
X81880952Y-84978628D01*
X81642857Y-85454819D02*
X81642857Y-84454819D01*
X81642857Y-84454819D02*
X82023809Y-84454819D01*
X82023809Y-84454819D02*
X82119047Y-84502438D01*
X82119047Y-84502438D02*
X82166666Y-84550057D01*
X82166666Y-84550057D02*
X82214285Y-84645295D01*
X82214285Y-84645295D02*
X82214285Y-84788152D01*
X82214285Y-84788152D02*
X82166666Y-84883390D01*
X82166666Y-84883390D02*
X82119047Y-84931009D01*
X82119047Y-84931009D02*
X82023809Y-84978628D01*
X82023809Y-84978628D02*
X81642857Y-84978628D01*
X83071428Y-84788152D02*
X83071428Y-85454819D01*
X82833333Y-84407200D02*
X82595238Y-85121485D01*
X82595238Y-85121485D02*
X83214285Y-85121485D01*
X107833333Y-76204819D02*
X107500000Y-75728628D01*
X107261905Y-76204819D02*
X107261905Y-75204819D01*
X107261905Y-75204819D02*
X107642857Y-75204819D01*
X107642857Y-75204819D02*
X107738095Y-75252438D01*
X107738095Y-75252438D02*
X107785714Y-75300057D01*
X107785714Y-75300057D02*
X107833333Y-75395295D01*
X107833333Y-75395295D02*
X107833333Y-75538152D01*
X107833333Y-75538152D02*
X107785714Y-75633390D01*
X107785714Y-75633390D02*
X107738095Y-75681009D01*
X107738095Y-75681009D02*
X107642857Y-75728628D01*
X107642857Y-75728628D02*
X107261905Y-75728628D01*
X108785714Y-76204819D02*
X108214286Y-76204819D01*
X108500000Y-76204819D02*
X108500000Y-75204819D01*
X108500000Y-75204819D02*
X108404762Y-75347676D01*
X108404762Y-75347676D02*
X108309524Y-75442914D01*
X108309524Y-75442914D02*
X108214286Y-75490533D01*
X101583333Y-93109580D02*
X101535714Y-93157200D01*
X101535714Y-93157200D02*
X101392857Y-93204819D01*
X101392857Y-93204819D02*
X101297619Y-93204819D01*
X101297619Y-93204819D02*
X101154762Y-93157200D01*
X101154762Y-93157200D02*
X101059524Y-93061961D01*
X101059524Y-93061961D02*
X101011905Y-92966723D01*
X101011905Y-92966723D02*
X100964286Y-92776247D01*
X100964286Y-92776247D02*
X100964286Y-92633390D01*
X100964286Y-92633390D02*
X101011905Y-92442914D01*
X101011905Y-92442914D02*
X101059524Y-92347676D01*
X101059524Y-92347676D02*
X101154762Y-92252438D01*
X101154762Y-92252438D02*
X101297619Y-92204819D01*
X101297619Y-92204819D02*
X101392857Y-92204819D01*
X101392857Y-92204819D02*
X101535714Y-92252438D01*
X101535714Y-92252438D02*
X101583333Y-92300057D01*
X102059524Y-93204819D02*
X102250000Y-93204819D01*
X102250000Y-93204819D02*
X102345238Y-93157200D01*
X102345238Y-93157200D02*
X102392857Y-93109580D01*
X102392857Y-93109580D02*
X102488095Y-92966723D01*
X102488095Y-92966723D02*
X102535714Y-92776247D01*
X102535714Y-92776247D02*
X102535714Y-92395295D01*
X102535714Y-92395295D02*
X102488095Y-92300057D01*
X102488095Y-92300057D02*
X102440476Y-92252438D01*
X102440476Y-92252438D02*
X102345238Y-92204819D01*
X102345238Y-92204819D02*
X102154762Y-92204819D01*
X102154762Y-92204819D02*
X102059524Y-92252438D01*
X102059524Y-92252438D02*
X102011905Y-92300057D01*
X102011905Y-92300057D02*
X101964286Y-92395295D01*
X101964286Y-92395295D02*
X101964286Y-92633390D01*
X101964286Y-92633390D02*
X102011905Y-92728628D01*
X102011905Y-92728628D02*
X102059524Y-92776247D01*
X102059524Y-92776247D02*
X102154762Y-92823866D01*
X102154762Y-92823866D02*
X102345238Y-92823866D01*
X102345238Y-92823866D02*
X102440476Y-92776247D01*
X102440476Y-92776247D02*
X102488095Y-92728628D01*
X102488095Y-92728628D02*
X102535714Y-92633390D01*
X104704819Y-97511904D02*
X104704819Y-96940476D01*
X105704819Y-97226190D02*
X104704819Y-97226190D01*
X105704819Y-96035714D02*
X105228628Y-96369047D01*
X105704819Y-96607142D02*
X104704819Y-96607142D01*
X104704819Y-96607142D02*
X104704819Y-96226190D01*
X104704819Y-96226190D02*
X104752438Y-96130952D01*
X104752438Y-96130952D02*
X104800057Y-96083333D01*
X104800057Y-96083333D02*
X104895295Y-96035714D01*
X104895295Y-96035714D02*
X105038152Y-96035714D01*
X105038152Y-96035714D02*
X105133390Y-96083333D01*
X105133390Y-96083333D02*
X105181009Y-96130952D01*
X105181009Y-96130952D02*
X105228628Y-96226190D01*
X105228628Y-96226190D02*
X105228628Y-96607142D01*
X105704819Y-95083333D02*
X105704819Y-95654761D01*
X105704819Y-95369047D02*
X104704819Y-95369047D01*
X104704819Y-95369047D02*
X104847676Y-95464285D01*
X104847676Y-95464285D02*
X104942914Y-95559523D01*
X104942914Y-95559523D02*
X104990533Y-95654761D01*
X110508557Y-65249999D02*
X111151414Y-65249999D01*
X111151414Y-65249999D02*
X111279985Y-65292856D01*
X111279985Y-65292856D02*
X111365700Y-65378570D01*
X111365700Y-65378570D02*
X111408557Y-65507142D01*
X111408557Y-65507142D02*
X111408557Y-65592856D01*
X111408557Y-64821428D02*
X110508557Y-64821428D01*
X110508557Y-64821428D02*
X110508557Y-64478571D01*
X110508557Y-64478571D02*
X110551414Y-64392856D01*
X110551414Y-64392856D02*
X110594271Y-64349999D01*
X110594271Y-64349999D02*
X110679985Y-64307142D01*
X110679985Y-64307142D02*
X110808557Y-64307142D01*
X110808557Y-64307142D02*
X110894271Y-64349999D01*
X110894271Y-64349999D02*
X110937128Y-64392856D01*
X110937128Y-64392856D02*
X110979985Y-64478571D01*
X110979985Y-64478571D02*
X110979985Y-64821428D01*
X110808557Y-63535714D02*
X111408557Y-63535714D01*
X110465700Y-63749999D02*
X111108557Y-63964285D01*
X111108557Y-63964285D02*
X111108557Y-63407142D01*
X99083333Y-89109580D02*
X99035714Y-89157200D01*
X99035714Y-89157200D02*
X98892857Y-89204819D01*
X98892857Y-89204819D02*
X98797619Y-89204819D01*
X98797619Y-89204819D02*
X98654762Y-89157200D01*
X98654762Y-89157200D02*
X98559524Y-89061961D01*
X98559524Y-89061961D02*
X98511905Y-88966723D01*
X98511905Y-88966723D02*
X98464286Y-88776247D01*
X98464286Y-88776247D02*
X98464286Y-88633390D01*
X98464286Y-88633390D02*
X98511905Y-88442914D01*
X98511905Y-88442914D02*
X98559524Y-88347676D01*
X98559524Y-88347676D02*
X98654762Y-88252438D01*
X98654762Y-88252438D02*
X98797619Y-88204819D01*
X98797619Y-88204819D02*
X98892857Y-88204819D01*
X98892857Y-88204819D02*
X99035714Y-88252438D01*
X99035714Y-88252438D02*
X99083333Y-88300057D01*
X99940476Y-88538152D02*
X99940476Y-89204819D01*
X99702381Y-88157200D02*
X99464286Y-88871485D01*
X99464286Y-88871485D02*
X100083333Y-88871485D01*
D15*
%TO.C,LED1*%
X98455000Y-101815000D02*
X101545000Y-101815000D01*
X100000462Y-96265001D02*
G75*
G03*
X98455170Y-101814999I-462J-2989999D01*
G01*
X101544830Y-101815000D02*
G75*
G03*
X99999538Y-96265000I-1544830J2560000D01*
G01*
X102500000Y-99255000D02*
G75*
G03*
X97500000Y-99255000I-2500000J0D01*
G01*
X97500000Y-99255000D02*
G75*
G03*
X102500000Y-99255000I2500000J0D01*
G01*
%TO.C,R9*%
X104515000Y-101727064D02*
X104515000Y-101272936D01*
X105985000Y-101727064D02*
X105985000Y-101272936D01*
D16*
%TO.C,PHR1*%
X94450000Y-98110000D02*
X94450000Y-100390000D01*
X91050000Y-98110000D02*
X91050000Y-100390000D01*
X94450000Y-98110000D02*
G75*
G03*
X92750000Y-97200001I-1696795J-1126925D01*
G01*
X92750000Y-97200000D02*
G75*
G03*
X91050000Y-98110000I-3201J-2036931D01*
G01*
X92750000Y-101300001D02*
G75*
G03*
X94450000Y-100390000I3200J2036931D01*
G01*
X91050000Y-100390000D02*
G75*
G03*
X92750000Y-101299999I1696795J1126925D01*
G01*
D15*
%TO.C,R4*%
X102985000Y-65772936D02*
X102985000Y-66227064D01*
X101515000Y-65772936D02*
X101515000Y-66227064D01*
%TO.C,R5*%
X94515000Y-93227064D02*
X94515000Y-92772936D01*
X95985000Y-93227064D02*
X95985000Y-92772936D01*
D16*
%TO.C,J2*%
X103730000Y-54750000D02*
X109270000Y-54750000D01*
X103730000Y-61250000D02*
X103730000Y-54750000D01*
X109270000Y-54750000D02*
X109270000Y-61250000D01*
X109270000Y-61250000D02*
X103730000Y-61250000D01*
D12*
X103080000Y-58000000D02*
G75*
G03*
X102880000Y-58000000I-100000J0D01*
G01*
X102880000Y-58000000D02*
G75*
G03*
X103080000Y-58000000I100000J0D01*
G01*
D15*
%TO.C,C3*%
X101988748Y-79765000D02*
X102511252Y-79765000D01*
X101988748Y-81235000D02*
X102511252Y-81235000D01*
%TO.C,TR3*%
X106232500Y-84480000D02*
X106232500Y-89550000D01*
X106232500Y-84480000D02*
X116002500Y-84480000D01*
X106232500Y-89550000D02*
X116002500Y-89550000D01*
X116002500Y-84480000D02*
X116002500Y-89550000D01*
%TO.C,C7*%
X111738748Y-75015000D02*
X112261252Y-75015000D01*
X111738748Y-76485000D02*
X112261252Y-76485000D01*
%TO.C,R8*%
X113765000Y-68977064D02*
X113765000Y-68522936D01*
X115235000Y-68977064D02*
X115235000Y-68522936D01*
%TO.C,JP3*%
X101830000Y-61855000D02*
X100500000Y-61855000D01*
X101830000Y-60525000D02*
X101830000Y-61855000D01*
X101830000Y-59255000D02*
X101830000Y-56655000D01*
X101830000Y-59255000D02*
X99170000Y-59255000D01*
X101830000Y-56655000D02*
X99170000Y-56655000D01*
X99170000Y-59255000D02*
X99170000Y-56655000D01*
%TO.C,U1*%
X98750000Y-81940000D02*
X95300000Y-81940000D01*
X98750000Y-81940000D02*
X100700000Y-81940000D01*
X98750000Y-87060000D02*
X96800000Y-87060000D01*
X98750000Y-87060000D02*
X100700000Y-87060000D01*
D16*
%TO.C,J4*%
X82000000Y-86210000D02*
X82000000Y-91750000D01*
X75500000Y-86210000D02*
X82000000Y-86210000D01*
X82000000Y-91750000D02*
X75500000Y-91750000D01*
X75500000Y-91750000D02*
X75500000Y-86210000D01*
D12*
X78850000Y-85460000D02*
G75*
G03*
X78650000Y-85460000I-100000J0D01*
G01*
X78650000Y-85460000D02*
G75*
G03*
X78850000Y-85460000I100000J0D01*
G01*
D15*
%TO.C,R7*%
X113727064Y-64985000D02*
X113272936Y-64985000D01*
X113727064Y-63515000D02*
X113272936Y-63515000D01*
%TO.C,C1*%
X91597500Y-55712500D02*
X91597500Y-56500000D01*
X91991250Y-56106250D02*
X91203750Y-56106250D01*
X92095563Y-56740000D02*
X90810000Y-56740000D01*
X92095563Y-56740000D02*
X93160000Y-57804437D01*
X87404437Y-56740000D02*
X88690000Y-56740000D01*
X87404437Y-56740000D02*
X86340000Y-57804437D01*
X93160000Y-57804437D02*
X93160000Y-63560000D01*
X86340000Y-57804437D02*
X86340000Y-63560000D01*
X93160000Y-63560000D02*
X90810000Y-63560000D01*
X86340000Y-63560000D02*
X88690000Y-63560000D01*
%TO.C,R6*%
X95272936Y-78765000D02*
X95727064Y-78765000D01*
X95272936Y-80235000D02*
X95727064Y-80235000D01*
%TO.C,R3*%
X101515000Y-70477064D02*
X101515000Y-70022936D01*
X102985000Y-70477064D02*
X102985000Y-70022936D01*
%TO.C,JP2*%
X92355000Y-78170000D02*
X92355000Y-79500000D01*
X91025000Y-78170000D02*
X92355000Y-78170000D01*
X89755000Y-78170000D02*
X84615000Y-78170000D01*
X89755000Y-78170000D02*
X89755000Y-80830000D01*
X84615000Y-78170000D02*
X84615000Y-80830000D01*
X89755000Y-80830000D02*
X84615000Y-80830000D01*
%TO.C,C8*%
X100535000Y-65748748D02*
X100535000Y-66271252D01*
X99065000Y-65748748D02*
X99065000Y-66271252D01*
%TO.C,C2*%
X91597500Y-65862500D02*
X91597500Y-66650000D01*
X91991250Y-66256250D02*
X91203750Y-66256250D01*
X92095563Y-66890000D02*
X90810000Y-66890000D01*
X92095563Y-66890000D02*
X93160000Y-67954437D01*
X87404437Y-66890000D02*
X88690000Y-66890000D01*
X87404437Y-66890000D02*
X86340000Y-67954437D01*
X93160000Y-67954437D02*
X93160000Y-73710000D01*
X86340000Y-67954437D02*
X86340000Y-73710000D01*
X93160000Y-73710000D02*
X90810000Y-73710000D01*
X86340000Y-73710000D02*
X88690000Y-73710000D01*
%TO.C,U2*%
X112897500Y-70250000D02*
X112897500Y-66800000D01*
X112897500Y-70250000D02*
X112897500Y-72200000D01*
X104027500Y-70250000D02*
X104027500Y-68300000D01*
X104027500Y-70250000D02*
X104027500Y-72200000D01*
%TO.C,JP1*%
X92330000Y-88170000D02*
X92330000Y-89500000D01*
X91000000Y-88170000D02*
X92330000Y-88170000D01*
X89730000Y-88170000D02*
X84590000Y-88170000D01*
X89730000Y-88170000D02*
X89730000Y-90830000D01*
X84590000Y-88170000D02*
X84590000Y-90830000D01*
X89730000Y-90830000D02*
X84590000Y-90830000D01*
%TO.C,R2*%
X99265000Y-70477064D02*
X99265000Y-70022936D01*
X100735000Y-70477064D02*
X100735000Y-70022936D01*
%TO.C,J1*%
X76090000Y-63950000D02*
X75450000Y-63950000D01*
X75450000Y-63950000D02*
X75450000Y-64350000D01*
X83410000Y-64190000D02*
X75690000Y-64190000D01*
X83410000Y-64190000D02*
X83410000Y-74810000D01*
X77250000Y-64190000D02*
X77250000Y-74810000D01*
X76150000Y-64190000D02*
X76150000Y-74810000D01*
X75690000Y-64190000D02*
X75690000Y-74810000D01*
X79309000Y-68355000D02*
X79181000Y-68226000D01*
X79069000Y-68525000D02*
X78976000Y-68431000D01*
X81525000Y-70570000D02*
X81431000Y-70476000D01*
X81319000Y-70775000D02*
X81191000Y-70646000D01*
X79309000Y-71855000D02*
X79181000Y-71726000D01*
X79069000Y-72025000D02*
X78976000Y-71931000D01*
X81525000Y-74070000D02*
X81431000Y-73976000D01*
X81319000Y-74275000D02*
X81191000Y-74146000D01*
X83410000Y-74810000D02*
X75690000Y-74810000D01*
X81116000Y-64560000D02*
G75*
G03*
X79360106Y-64574642I-866000J-1439998D01*
G01*
X81690000Y-66866000D02*
G75*
G03*
X81675358Y-65110106I-1439998J866000D01*
G01*
X78810000Y-65134000D02*
G75*
G03*
X78569902Y-66028674I1440014J-866003D01*
G01*
X78570001Y-66000000D02*
G75*
G03*
X78825280Y-66890264I1679989J-3D01*
G01*
X79359001Y-67424999D02*
G75*
G03*
X81140192Y-67425503I890999J1425002D01*
G01*
X81930000Y-69500000D02*
G75*
G03*
X78570000Y-69500000I-1680000J0D01*
G01*
X78570000Y-69500000D02*
G75*
G03*
X81930000Y-69500000I1680000J0D01*
G01*
X81930000Y-73000000D02*
G75*
G03*
X78570000Y-73000000I-1680000J0D01*
G01*
X78570000Y-73000000D02*
G75*
G03*
X81930000Y-73000000I1680000J0D01*
G01*
D16*
%TO.C,J3*%
X82000000Y-77960000D02*
X82000000Y-83500000D01*
X75500000Y-77960000D02*
X82000000Y-77960000D01*
X82000000Y-83500000D02*
X75500000Y-83500000D01*
X75500000Y-83500000D02*
X75500000Y-77960000D01*
D12*
X78850000Y-77210000D02*
G75*
G03*
X78650000Y-77210000I-100000J0D01*
G01*
X78650000Y-77210000D02*
G75*
G03*
X78850000Y-77210000I100000J0D01*
G01*
D15*
%TO.C,TR2*%
X106232500Y-78030000D02*
X106232500Y-83100000D01*
X106232500Y-78030000D02*
X116002500Y-78030000D01*
X106232500Y-83100000D02*
X116002500Y-83100000D01*
X116002500Y-78030000D02*
X116002500Y-83100000D01*
%TO.C,TR4*%
X93375000Y-87030000D02*
X93375000Y-81960000D01*
X93375000Y-87030000D02*
X83605000Y-87030000D01*
X93375000Y-81960000D02*
X83605000Y-81960000D01*
X83605000Y-87030000D02*
X83605000Y-81960000D01*
%TO.C,R1*%
X105189564Y-76485000D02*
X104735436Y-76485000D01*
X105189564Y-75015000D02*
X104735436Y-75015000D01*
%TO.C,C9*%
X104485000Y-92488748D02*
X104485000Y-93011252D01*
X103015000Y-92488748D02*
X103015000Y-93011252D01*
%TO.C,TR1*%
X106125000Y-91220000D02*
X106125000Y-96290000D01*
X106125000Y-91220000D02*
X115895000Y-91220000D01*
X106125000Y-96290000D02*
X115895000Y-96290000D01*
X115895000Y-91220000D02*
X115895000Y-96290000D01*
%TO.C,JP4*%
X109855000Y-62920000D02*
X109855000Y-64250000D01*
X108525000Y-62920000D02*
X109855000Y-62920000D01*
X107255000Y-62920000D02*
X104655000Y-62920000D01*
X107255000Y-62920000D02*
X107255000Y-65580000D01*
X104655000Y-62920000D02*
X104655000Y-65580000D01*
X107255000Y-65580000D02*
X104655000Y-65580000D01*
%TO.C,C4*%
X101988748Y-87765000D02*
X102511252Y-87765000D01*
X101988748Y-89235000D02*
X102511252Y-89235000D01*
%TD*%
M02*
